<?xml version="1.0"?>
<svg xmlns="http://www.w3.org/2000/svg" version="1.1" id="Layer_1" x="0" y="0" viewBox="0 0 150 150" xml:space="preserve">
  <style>
    .st2{fill-rule:evenodd;clip-rule:evenodd;fill:#303f42}.st3{fill:#f0ce41}.st3,.st8{fill-rule:evenodd;clip-rule:evenodd}.st9{fill:#f7a41d}
  </style>
  <path id="shape0" d="M148.2 73.8L147 59.9l-4.1-13.6-8.5-14.4-9.4-11.2-11.3-8.8-12.8-6.3-14.6-3.9-11.8-1-11.7 1.4-15.6 4.1-11.4 5.1-11 8.5-10.2 11.6-8 15.4-3.2 7.9-2.2 13.5v13.9l1.6 10.5 4.5 12.3 7.5 13.7 12 12.1 9.6 7.2 13.6 6.7 7.4 2.2 8.9.4 4.6 1.1 10.9.1 12.2-4.5 12.7-7.3 18.3-14 15.6-18.6 6.9-11.1 1.3-7.3v-6s-.2-1.9-.6-5.8z" fill-rule="evenodd" clip-rule="evenodd" fill="#c0fdf1" fill-opacity=".4863"/>
  <path id="shape12" d="M148.6 74.4l-3.7-2.8-6.3-.8 5.8-6.4-1.4-.6-14.5 1-5.2-.5-1.8-2.3 6.8-3.1 5.9-5.5.6-2.7-5.6 1.7-17 .6-7.7-2-7.5-3.8-26.5-.8-2.7-.3-3.5 3.9L49 62.4l-13.4 7.1-15.2 5.1-7.6 2.6-3 7.7 1.3 8.7.7 4.7 3.2 3.9 1.9 2.2 2 4.3 6.7 4.5 7.3 3.4 6.4 1.8 5.6 4.1 9 8.3 6.9 3.4 6.8 3.7 3.8 4.4 10.3 5.3 9.1-2.5 11.2-5.3 11.3-7.9 12.4-9.9 6.8-7.6 11-13.8 4.4-9.3 1-7.4-.3-6.2v-3.3z" fill-rule="evenodd" clip-rule="evenodd" fill="#9ca76c"/>
  <path id="shape13" d="M88.3 60.4l-12.1 4.1-8.2 5.3-.1 5.2 3.3 5.6 5.2 3.1h6l7.7-2.9 3.1-3.5 1.2-6.9-1.5-5.9-2-2.5c-.1-.1-.9-.6-2.6-1.6z" fill-rule="evenodd" clip-rule="evenodd" fill="#edf7ce"/>
  <path id="shape14" d="M82.1 147.7l-7.1-3-5.7-3.8-1.9 3.3-.8 2.7.8.3 4.8 1.2 6.1-.1c0 .1 1.3-.1 3.8-.6z" fill-rule="evenodd" clip-rule="evenodd" fill="#dbcb88"/>
  <path class="st8" d="M148.9 79.2c.1-1.4.4-6.4.4-8.6 0-2.2-.6-6.5-.9-7.8-.2-.9-.9-4-2-9.2-1.7-4.7-2.6-7.4-2.8-8.3-.3-1.3-4.6-9.5-5.9-11-1.2-1.5-6.2-8.4-7.5-9.6-.9-.8-4-3.6-9.4-8.5-5.4-4.3-9.2-6.9-11.4-7.9-3.3-1.5-7.6-3.5-10.4-4.3-2.7-.8-6.6-2.3-8.1-2.7S81.6-.1 74.7 0 56.6 2 54.5 2.6C53 3 48.8 4.5 41.9 7.2c-3.9 2-6.7 3.6-8.6 4.9-2.8 1.9-6.1 5-8.6 7s-4.9 4.7-6.1 6c-1.2 1.3-4.4 5.9-6 8C11 35.2 7.8 41.4 7 43.2c-.8 1.8-1.8 4.5-2.7 7-.9 2.6-1.8 4.9-2.5 8.1-.7 3.2-1.3 5.9-1.4 8-.1 1.4-.1 4.8-.2 10.1.1 5.1.5 9.1 1 12.2.8 4.6 4.6 15.4 5.2 17.1s4.4 8.4 5.9 10.8c1.5 2.5 6.9 8.9 8.9 10.6 2 1.6 6.4 6.1 9.6 8.3 3.2 2.1 9.9 6.3 12.4 7.5 2.5 1.2 7.5 3.2 9.8 3.5 2.3.4 7.2 1.7 10.2 1.8 2 .1 4.2 0 6.5-.1l-3.3-1.6-7.4-.3-4.5-.8c-4-1.8-6.6-2.8-7.8-3-1.8-.3-8-4.3-9.4-4.8-1-.3-3.4-2.1-7.4-5.3l-6.2-5.6-5.3-5.7-5.4-7.3c-3.3-6.1-5.1-9.7-5.6-10.9-.7-1.7-3.9-10.7-4-12.3C3.1 89 2 80.1 2 77.7c0-2.3-.2-7.6-.1-9 .1-1 1.1-6.2 2.9-15.5 2.6-5.9 4.3-9.6 5-11.2.7-1.6 2.7-5.2 6.1-10.8l7.9-8.9c3.9-3.7 6.8-6.1 8.4-7.3 2.5-1.7 10.6-6.6 19.4-9.1s18.8-4 20.8-3.8c2 .2 11.2-.3 13.6.5s7.3 1.8 10.8 2.9c2.3.7 6.7 2.5 13.2 5.5 5.8 3.5 9.2 5.9 10.1 7.1 1.5 1.9 7.9 7 9.7 9.2 1.8 2.2 6.8 9 7.4 10.5.6 1.5 4.9 7.8 6 11.7 1.1 3.9 2.9 9.8 3.4 14.6.5 4.7.9 8.1.7 9.7-.2 1.1-.1 2.2.2 3.3.2.6.7 1.4 1.4 2.1z"/>
  <path id="shape15" class="st8" d="M148.9 74.6l-2.8-4.1-4.1-.4-.8-.7 3.4-3.8 1.4-3.2c-2.7.7-5.2 1.1-7.5 1.1-3.5.1-9.7.2-12 .3-1.5 0-2.8-.5-4-1.4 2.7-.5 4.6-1.3 5.8-2.3 1.2-1 3.6-3 7-6l1.3-3.7-.3-1.3c-3.1 1.4-5.6 2.1-7.4 2.1-2.8.1-14 .2-16.8.6-1.9.3-3.4.2-4.3-.3-6.8-3.3-10.7-5.1-11.9-5.2-1.8-.2-10.9-1.1-14.2-.8-3.3.4-8.8-.6-11.4-.3-2.6.3-3.1.1-5.7 3.1-2.5 2.9-8.3 8-11.2 10.1-3 2.1-15.2 8.6-19.2 10.4S20 73.3 17.3 74.2c-2.7.9-5 1.2-6.5 4.6-1.5 3.4-3.3 8.8-1.7 13 1.6 4.2 2.3 6.8 4.3 9.5 1.3 1.8 2.4 3.2 3.1 4.2l.8 2.1 3.8 4.4 10.3 5.1 8.4 2.7L48 127l6.8 5.2 7.6 3.9 4.2 2.2c.7 1.5 1.5 2.9 2.5 4.2 1 1.3 4.7 3.3 11.1 5.9l4-.8-10.4-4.8-5.4-5.4 2.2-.2 5.2 1.1 14.5-1.8c4.1-.7 6.9-1.8 8.3-3.2 1.4-1.4 2.9-2.9 4.5-4.4l-3.3.1c-1.9 1.7-3.5 2.9-5 3.8-1.5.9-5.1 2-11 3.4l-12-.3-8.1-1.2-6.6-3.1-6.2-4.5-4.8-5.2-5.8-4.9-8.3-1.6-7.1-3.3-5-3.5-2.2-3.6 4.2-.8 3.1-1.4 3.6 2.6 1.6 2 1.5-2.7 3.1-.5 7.4 6.4 1.6-6 9.2-.1 11-1.7 11.1-2 6.5-2.1 1 .8 2.1 4.4 2 2.3 2-3.7 2.6-3.2 4.7-.9 2.3-1.4 1.5 3.3 1.7 3 1-4.2 2-2.5c2.6-.7 4.4-1.8 5.4-3.1s2.4-3.5 4.1-6.5c0-2.2-1-3.4-2.8-3.5-1.8-.2-3.5 0-5 .5l.4 1.3 2.3.9 1.3 1.6-1.2 3.4-3.5 2.8-2.8 1.5-1.4 2.7-.4 1.5-1.9-4.1-5 2.1-4.6.8-2.9 4.2-4.9-5.5c-1.2-.3-2.6-.2-4.2.4-1.6.6-3.5 1.3-5.7 2.1l-14.4 2.6-10.8.8-3.1-.6-2 3.5-.3 1.4-5.3-4.6L34 101l-3.6 2.4-1.2.6-3.7-2.7-2.1-.2-6.4 2.5-4.3-6.1-2-11.6 2.4-7.6c2.9-1.8 5.6-2.9 8-3.3 2.4-.4 7.4-1.8 15.2-4.4l15.8-8.8 11.2-9.3 4.5-4.8c8 0 13.1-.1 15.5-.2 2.4-.1 6.3 0 11.8.3 3.3 1.9 5.6 3.1 6.9 3.5s4.5 1.5 9.7 3.3c4.9-.6 8-1 9.5-1.2 1.5-.2 4.6-.2 9.4-.1l2.6-.8-3.6 3.8-5.6 3.8-3.9 1.7-.9.5c2.1 2 3.7 3.1 4.9 3.3 1.8.3 6.7.3 8.5 0 1.2-.2 3.9-.3 8.1-.1l2.1-.9-4.3 4.9-2.4 1.5 3.2 1.9 4.6.3c.5.2 2.1.7 5 1.4z"/>
  <path id="shape16" class="st8" d="M18.7 85.9c-1.6.9-1.9 1.6-.9 2.3 1 .7 2.1 1.2 3.5 1.6l2 2.1 1 .4-.4-3-2.1-2.3c-.5-.1-1.5-.5-3.1-1.1z"/>
  <path id="shape17" class="st8" d="M68.1 71.9c1.2-1.6 2.7-2.8 4.7-3.7 2.9-1.4 4.2-3.4 8.2-4.2 4-.9 3.3-1.2 6.1-2.1 1.8-.6 3-.9 3.7-.8l-.4-1.5c-.5-.8-1.6-.9-3.2-.4-2.4.8-3.9 1.4-6.3 2.6-2.5 1.1-5.2 2.1-7.4 3.4-1.4.8-2.8 1.7-4.2 2.7L67 69.3c-.3.6.1 1.5 1.1 2.6z"/>
  <path id="shape18" class="st8" d="M90.1 59.6c1.7 1.3 2.7 2.8 3.1 4.4.6 2.4 2 4.7 1.7 7.2-.2 1.7-.6 3.9-1.3 6.8l-3.2 3.7c-1.8 1.3-3.4 2.2-5 2.6-2.4.6-3.2.8-5.9.5-2.7-.3-4.7-.5-6.6-1.9-1.3-.9-2.7-2.4-4.2-4.5l-1.4-4.1v-4.4l1.4-.4c-.3 1.2-.4 2.4-.2 3.6.1 1.1.8 3 1.9 5.5l4.3 3.7c2.4.6 4.2.9 5.5.9 1.9-.1 4.5-.1 6.8-1.3 1.5-.8 3.2-2.3 5-4.5 1.1-1.2 1.6-2.7 1.4-4.4-.2-2.6-.2-3.4-1.1-5.7-.6-1.5-1.3-3.2-2.1-5.1l-2.4-1.6c-.1-.2.8-.5 2.3-1z"/>
  <path id="shape19" class="st8" d="M82.3 67.9l-2.1 1.9-.4 4.1.3 3.6.4 2.3 1.9 1.8 1.5-1.7.1-4.9-.2-5.1c0-.2-.5-.8-1.5-2z"/>
  <path id="shape20" class="st8" d="M147.7 76.1c.4 3.1.5 5.2.5 6.5-.1 1.9-.8 6.8-1.4 8.6-.6 1.9-5.2 9.6-6.7 12-1.5 2.4-9.7 12.4-12.4 15.4-1.8 2-6.7 6.2-14.7 12.8L98 141l-14 6-10.5 1.1-5.2-1.1-1.4-.5-.4 1.6 5.4.8 8.4.3 16.5-5.3 11.8-7.6 18.2-14.3c9.1-10.3 14.1-16 14.8-17.2 1-1.8 7.1-10.9 7.5-13.3.2-1.5.4-4.7.4-9.5l-.7-7.7c.1.1-.3.7-1.1 1.8z"/>
  <path id="shape48" class="st8" d="M68.1 147.6c-1-.6-.9-1.8.1-3.5s1.8-2.8 2.3-3.4l-1.7-.8c-2.1 3.7-2.9 6-2.3 7 .8 1.6.8 1.6 1.6.7z"/>
  <g id="head_shadows" fill="#7e8f71">
    <path id="chin_shadow" d="m 135.38672,99.533203 C 116.42872,121.56713 83.474369,135.0505 56.132812,130.89844 l 0.966797,0.70117 6.6,3.1 8.101562,1.20117 12,0.3 c 5.9,-1.4 9.5,-2.49844 11,-3.4 1.5,-0.9 3.1,-2.1 5,-3.8 l 3.298829,-0.0996 c -1.6,1.5 -3.1,3 -4.5,4.4 -1.4,1.4 -4.2,2.5 -8.3,3.2 l -14.5,1.8 -5.201172,-1.10156 -2.2,0.20117 1.658203,1.6582 c 34.162336,8.39151 62.488166,-31.91899 63.841796,-33.87885 0.63352,-1.81718 1.50893,-3.69596 1.48633,-5.646487 z"/>
    <path id="nostril_shadow" d="m 24.186967,87.718065 c 0.963412,1.735176 0.508497,3.830479 1.045659,5.607253 0.117096,0.133649 1.313254,0.142101 1.534276,0.116992 0.408495,-0.861345 0.541009,-1.705609 0.391377,-2.649764 -0.783753,-1.201046 -1.9588,-2.077695 -2.971312,-3.074478 z"/>
    <path id="maw_mid_shadow" d="m 81.6,98.7 -6.5,2.101561 -11.1,2 -11,1.7 -9.2,0.0996 -1.498047,5.61328 c 0.03666,0.0983 0.07017,0.19984 0.1,0.27344 2.9844,-3.47614 16.80718,-6.40695 40.968751,-9.3692 L 82.6,99.5 z"/>
    <path id="maw_canine_shadow" d="m 34.8,104.2 -3.101562,0.5 -1.5,2.70116 c 0.824971,0.32555 2.78689,-1.61206 6.238291,-1.78504 z"/>
    <path id="maw_molar_shadow" d="M 98.3,97 96,98.4 91.3,99.3 88.7,102.5 l -1.904297,3.52344 c 1.234933,0.0666 3.296933,-2.86522 4.605472,-3.91212 2.208123,-1.87672 5.026579,-2.5 7.8,-3.148429 z"/>
    <path id="maw_lip_shadow" d="m 25,102.8 -3.1,1.4 -0.960938,0.18359 c 8.172531,0.62023 2.574839,0.0762 6.720704,0.33958 z"/>
    <path id="maw_cheek_shadow" d="m 113.82617,87.292969 c -1.61409,2.828888 -2.96344,5 -3.92578,6.207031 -1,1.3 -2.8,2.4 -5.4,3.1 l -2,2.5 -0.96484,4.052731 c 0.004,0.0244 0.008,0.0496 0.0137,0.0742 0.83025,-1.06744 2.11252,-3.934659 3.72453,-5.3164 1.05346,-0.90232 2.45947,-1.223442 3.80859,-2.302733 0.70891,-0.562334 5,-5.575192 4.74358,-8.314454 z"/>
    <path id="neck_topspike_shadow" d="m 131.07422,54.744141 c -6.84155,5.7 -18.01728,5.198912 -18.31055,5.492187 1.54482,1.692951 3.8592,2.053395 6.47656,2.101563 -0.0145,-0.01379 -0.0264,-0.02323 -0.041,-0.03711 l 0.9,-0.5 3.9,-1.701172 5.6,-3.8 z"/>
    <path id="neck_basespike_shadow" d="m 142.36719,65.09375 c -2.96321,3.077714 -7.20791,3.785355 -11.17969,4.8125 -0.73122,1.670727 5.49831,1.60863 5.61914,1.568359 0.0163,-0.0054 0.0334,-0.01507 0.0508,-0.02539 L 136.1,71 138.5,69.5 z"/>
  </g>
  <g id="bulb_highlights" fill="#e0fffc" style="fill-opacity:0.34507">
    <path id="bulb_highlight_large" d="m 47.881055,10.062857 C 33.397396,17.160614 22.676196,27.432979 14.330976,40.938218 l 6.431798,3.70284 C 29.212647,25.166301 53.368387,14.164789 53.368387,14.164789 z"/>
    <path id="bulb_highlight_small" d="m 12.926219,43.356359 c -1.936998,2.219192 -3.2,4.939005 -4,7.755343 l 6.6086759,3.060177 c 0.647746,-2.698387 2.766051,-6.183526 3.768206,-6.904685 -2.127304,-1.30361 -4.254605,-2.607232 -6.381911,-3.910835 z"/>
  </g>
</svg>
