<?xml version="1.0" encoding="UTF-8" standalone="no"?>
<svg
   version="1.1"
   id="Layer_1"
   x="0"
   y="0"
   viewBox="0 0 149.3 149.20699"
   xml:space="preserve"
   sodipodi:docname="zero.svg"
   inkscape:version="1.4 (e7c3feb1, 2024-10-09)"
   inkscape:export-filename="Zero_the_Ziguana.png"
   inkscape:export-xdpi="96"
   inkscape:export-ydpi="96"
   width="149.3"
   height="149.20699"
   xmlns:inkscape="http://www.inkscape.org/namespaces/inkscape"
   xmlns:sodipodi="http://sodipodi.sourceforge.net/DTD/sodipodi-0.dtd"
   xmlns="http://www.w3.org/2000/svg"
   xmlns:svg="http://www.w3.org/2000/svg"><defs
   id="defs118" /><sodipodi:namedview
   id="namedview116"
   pagecolor="#505050"
   bordercolor="#eeeeee"
   borderopacity="1"
   inkscape:showpageshadow="0"
   inkscape:pageopacity="0"
   inkscape:pagecheckerboard="0"
   inkscape:deskcolor="#505050"
   showgrid="false"
   inkscape:zoom="2.195"
   inkscape:cx="105.46697"
   inkscape:cy="100.68337"
   inkscape:window-width="1368"
   inkscape:window-height="791"
   inkscape:window-x="0"
   inkscape:window-y="25"
   inkscape:window-maximized="0"
   inkscape:current-layer="Layer_1" />
  <style
   id="style61">
    .st2{fill-rule:evenodd;clip-rule:evenodd;fill:#303f42}.st3{fill:#f0ce41}.st3,.st8{fill-rule:evenodd;clip-rule:evenodd}.st9{fill:#f7a41d}
  </style>
  
  
  
  
  
  
  
  
  
  
  
  <path
   style="opacity:1;fill:#576c3b;fill-opacity:1;fill-rule:evenodd;stroke:none;stroke-width:1.021;stroke-dasharray:none;stroke-opacity:1;paint-order:markers stroke fill"
   d="m 41.492912,108.31617 c 0.0308,0.0231 0.06704,0.0403 0.09239,0.0693 0.02956,0.0338 0.04125,0.0804 0.0693,0.11549 0.221258,0.27658 0.01727,-0.0413 0.207887,0.23099 0.05667,0.081 0.09789,0.17752 0.16169,0.25408 0.02091,0.0251 0.05249,0.0413 0.0693,0.0693 0.0079,0.0132 -0.0049,0.0316 0,0.0462 -0.0086,0.0503 0.0385,0.008 0.0462,0.0231 0.0069,0.0138 -0.0069,0.0324 0,0.0462 0.0097,0.0195 0.03313,0.0288 0.0462,0.0462 0.01033,0.0138 0.0154,0.0308 0.0231,0.0462 0.0077,0.0231 0.0085,0.0498 0.0231,0.0693 0.01033,0.0138 0.03402,0.0109 0.0462,0.0231 0.08762,0.0876 0.01294,0.0447 0.0693,0.13859 0.0112,0.0187 0.03499,0.0275 0.0462,0.0462 0.01253,0.0209 0.01057,0.0484 0.0231,0.0693 0.02356,0.0393 0.06635,0.0764 0.0924,0.11549 0.03893,0.0584 0.04597,0.046 0.09239,0.0924 0.02831,0.0283 0.05023,0.0869 0.0693,0.1155 0.04572,0.0686 0.05371,0.0306 0.115492,0.0924 0.0231,0.0231 0.05897,0.10029 0.0693,0.0693 0.0073,-0.0219 -0.0045,-0.0466 0,-0.0693 0.01458,-0.0729 0.06943,-0.16209 0.09239,-0.23099 0.01004,-0.0301 0.0154,-0.0616 0.0231,-0.0924 0.0154,-0.0462 0.02956,-0.0928 0.0462,-0.13859 0.06362,-0.17496 0.165979,-0.33482 0.230986,-0.50817 0.07649,-0.20398 0.100435,-0.43849 0.16169,-0.64676 0.05367,-0.18248 0.161647,-0.34631 0.207887,-0.53127 0.0132,-0.0528 0.01086,-0.10864 0.0231,-0.16169 0.04524,-0.19603 0.121761,-0.38838 0.184789,-0.57746 0.05797,-0.17392 0.05642,-0.37451 0.09239,-0.55437 0.02518,-0.1259 0.06142,-0.24568 0.09239,-0.36957 0.03442,-0.13768 0.03355,-0.27665 0.0462,-0.41578 0.01197,-0.13163 0.03523,-0.26109 0.0462,-0.39267 0.01433,-0.17198 0.07543,-0.33856 0.09239,-0.50817 0.0046,-0.046 -0.0046,-0.0926 0,-0.13859 0.0032,-0.0316 0.01861,-0.061 0.0231,-0.0924 0.120582,-0.84407 -0.03236,0.18498 0.0231,-0.36957 0.0071,-0.0706 0.03453,-0.13787 0.0462,-0.20789 0.0025,-0.0152 0.01089,-0.0353 0,-0.0462 -0.0485,-0.0485 -0.332192,-0.0617 -0.392675,-0.0693 -0.05861,-0.007 -0.21052,-0.0906 -0.277183,-0.0462 -0.170646,0.11376 -0.285378,0.35169 -0.415774,0.50817 -0.111525,0.13383 -0.19823,0.27545 -0.300282,0.41577 -0.029,0.0399 -0.06755,0.0729 -0.09239,0.11549 -0.10668,0.18288 -0.175887,0.39176 -0.277183,0.57747 -0.02659,0.0487 -0.06581,0.0898 -0.09239,0.13859 -0.116795,0.21412 -0.177573,0.46342 -0.254084,0.69296 -0.06199,0.18598 -0.03577,0.0465 -0.09239,0.25408 -0.02066,0.0757 -0.02363,0.15578 -0.0462,0.23099 -0.01191,0.0397 -0.03529,0.0755 -0.0462,0.11549 -0.04977,0.18248 -0.0064,0.0869 -0.0231,0.25408 -0.01706,0.17063 -0.04813,0.33882 -0.0693,0.50817 -0.01279,0.1023 -0.06399,0.18251 -0.09239,0.27718 -0.01346,0.0449 -0.0083,0.0942 -0.0231,0.1386 -0.02942,0.0883 -0.0837,0.16665 -0.115493,0.25408 -0.0292,0.0803 -0.103279,0.33427 -0.16169,0.39268"
   id="path12085" />
  <path
   id="shape12"
   d="m 148.4,74.406987 -3.7,-2.8 -6.3,-0.8 5.8,-6.4 -1.4,-0.6 -14.5,1 -5.2,-0.5 -1.8,-2.3 6.8,-3.1 5.9,-5.5 0.6,-2.7 -5.6,1.7 -17,0.6 -7.7,-2 -7.5,-3.8 -26.5,-0.8 -2.7,-0.3 -3.5,3.9 -15.3,12.4 -13.4,7.1 -15.2,5.1 -7.6,2.6 -3,7.7 1.3,8.7 0.7,4.7 3.2,3.900003 1.9,2.2 2,4.3 6.7,4.5 7.3,3.4 6.4,1.8 5.6,4.1 9,8.3 6.9,3.4 6.8,3.7 3.8,4.4 10.3,5.3 9.1,-2.5 11.2,-5.3 11.3,-7.9 12.4,-9.9 6.8,-7.6 11,-13.8 4.4,-9.300003 1,-7.4 -0.3,-6.2 z"
   fill-rule="evenodd"
   clip-rule="evenodd"
   fill="#9ca76c"
   style="fill:#728942;fill-opacity:1" /><path
   id="shape13"
   d="m 88.1,60.406987 -12.1,4.1 -8.2,5.3 -0.1,5.2 3.3,5.6 5.2,3.1 h 6 l 7.7,-2.9 3.1,-3.5 1.2,-6.9 -1.5,-5.9 -2,-2.5 c -0.1,-0.1 -0.9,-0.6 -2.6,-1.6 z"
   fill-rule="evenodd"
   clip-rule="evenodd"
   fill="#edf7ce"
   inkscape:label="eye color"
   style="fill:#eded99;fill-opacity:1" /><path
   style="opacity:1;fill:#576c3b;fill-opacity:1;fill-rule:evenodd;stroke:none;stroke-width:1.021;stroke-dasharray:none;stroke-opacity:1;paint-order:markers stroke fill"
   d="m 132.94786,52.665071 c -0.98507,0.298337 -1.15675,1.371489 -1.82931,1.959979 -0.14659,0.128266 -0.37303,0.136632 -0.52266,0.26133 -0.22734,0.18945 -0.46857,0.594735 -0.78399,0.783991 -0.11811,0.07086 -0.28445,0.04462 -0.392,0.130666 -0.12263,0.0981 -0.13067,0.304885 -0.26133,0.391995 -0.14942,0.09961 -0.36674,0.04157 -0.52266,0.130665 -0.16044,0.09168 -0.22672,0.309356 -0.392,0.391996 -0.19864,0.09932 -0.44263,0.06043 -0.65332,0.130665 -0.82271,0.274235 -1.56965,0.840703 -2.35198,1.175987 -0.47629,0.204127 -1.06902,0.249435 -1.56798,0.391996 -0.96297,0.275134 -1.90729,0.569027 -2.87464,0.783991 -0.48477,0.107729 -0.94454,0.3304 -1.43731,0.391996 -1.13033,0 0.0141,-0.05509 -0.91466,0.130665 -0.29316,0.05863 -0.6215,-0.05863 -0.91466,0 -0.51823,0.103646 -1.03302,0.201891 -1.56798,0.261331 -0.74502,0.08278 -1.48084,0.155549 -2.22131,0.26133 -0.17186,0.02455 -1.04277,-0.133213 -1.17598,0 -0.1136,0.113593 0.80844,0.677776 0.91465,0.783991 0.0308,0.0308 -0.0308,0.09987 0,0.130666 0.0616,0.0616 0.19974,-0.0616 0.26133,0 0.0308,0.0308 -0.0308,0.09987 0,0.130665 0.0689,0.06887 0.1803,0.07664 0.26133,0.130665 0.25828,0.172184 0.32003,0.02935 0.52266,0.130665 1.93414,0.967066 4.20469,0.783992 6.4026,0.783992 0.0269,0 1.13185,-0.08653 1.17599,-0.130666 0.0689,-0.06887 0.0496,-0.207307 0.13066,-0.26133 0.0725,-0.04832 0.17869,0.02755 0.26133,0 0.11687,-0.03896 0.15115,-0.206237 0.26133,-0.261331 0.22814,-0.114068 0.5433,-0.231531 0.78399,-0.391995 0.10251,-0.06834 0.15115,-0.206237 0.26134,-0.261331 0.13066,-0.04355 0.26133,-0.08711 0.39199,-0.130665 0,-0.04355 -0.039,-0.111187 0,-0.130665 0.41402,-0.207008 0.1216,0.270399 0.52266,-0.130665 0.0689,-0.06887 0.0496,-0.207307 0.13067,-0.261331 0.0725,-0.04832 0.17682,0.02113 0.26133,0 0.16559,-0.0414 0.51011,-0.189726 0.65332,-0.26133 0.11019,-0.05509 0.15115,-0.206237 0.26133,-0.261331 0.16565,-0.08282 0.66177,-0.139106 0.784,-0.26133 0.0689,-0.06887 0.0618,-0.192464 0.13066,-0.261331 0.16323,-0.163225 0.48897,-0.151759 0.65333,-0.26133 0.15375,-0.102502 0.22671,-0.309356 0.39199,-0.391996 0.10206,-0.05103 0.53916,-0.147158 0.65333,-0.26133 0.0308,-0.0308 -0.039,-0.111187 0,-0.130665 0.0779,-0.03896 0.17869,0.02755 0.26133,0 0.40785,-0.13595 -0.0436,-0.08711 0.13066,-0.261331 0.0974,-0.09739 0.2774,-0.05426 0.392,-0.130665 0.10654,-0.07103 0.26095,-0.391806 0.26133,-0.391996 0.0779,-0.03896 0.18342,0.03896 0.26133,0 0.006,-0.0029 0.15756,-0.357406 0.26133,-0.391995 0.0826,-0.02755 0.18342,0.03896 0.26133,0 0.039,-0.01948 -0.0308,-0.09987 0,-0.130665 0.0738,-0.07383 0.42533,-0.163995 0.52266,-0.261331 0.0308,-0.0308 -0.0308,-0.09987 0,-0.130665 0.0436,-0.04355 0.34844,-0.08711 0.392,-0.130665 0.0308,-0.0308 0,-0.08711 0,-0.130666 0.0871,-0.08711 0.15883,-0.192995 0.26133,-0.26133 0.48737,-0.324917 0.91096,-0.776607 1.17599,-1.306652 0.2688,-0.537612 0.13066,-1.529322 0.13066,-2.090644 z"
   id="path11797" /><path
   style="opacity:1;fill:#576c3b;fill-opacity:1;fill-rule:evenodd;stroke:none;stroke-width:1.021;stroke-dasharray:none;stroke-opacity:1;paint-order:markers stroke fill"
   d="m 143.00908,64.816937 c -0.21777,0.04355 -0.46853,0.0075 -0.65332,0.130665 -0.35876,0.239172 -0.5729,0.651766 -0.91466,0.914657 -0.23159,0.178143 -0.54463,0.224443 -0.78399,0.391995 -0.20185,0.141293 -0.33559,0.362316 -0.52266,0.522661 -0.35264,0.302257 -0.79885,0.401902 -1.17599,0.653326 -0.1025,0.06834 -0.15114,0.206237 -0.26133,0.261331 -0.79453,0.397266 -2.01757,0.628969 -2.87463,0.914656 -0.47232,0.157438 -0.94898,0.229216 -1.43732,0.391996 -0.0584,0.01948 -0.0722,0.111187 -0.13067,0.130665 -0.0826,0.02755 -0.17591,-0.01708 -0.26133,0 -0.42562,0.08512 -0.73601,0.318667 -1.17598,0.391996 -0.18371,0.03062 -1.69763,0.260304 -1.82932,0.391995 -0.0308,0.0308 0.0308,0.09987 0,0.130666 -0.0308,0.0308 -0.0999,-0.0308 -0.13066,0 -0.41095,0.410942 0.95179,0.713848 1.04532,0.783991 0.0779,0.05844 0.0496,0.207307 0.13066,0.26133 0.19279,0.128527 0.7003,0.05921 0.91466,0.130666 0.0584,0.01948 0.0709,0.115726 0.13067,0.130665 0.12676,0.03169 0.26386,-0.02563 0.39199,0 0.0955,0.0191 0.16583,0.111565 0.26133,0.130665 0.68191,0.136381 1.53597,0 2.22131,0 0.13155,0 0.52896,0.04145 0.65333,0 0.11931,-0.03977 0.27124,-0.231143 0.39199,-0.26133 0.12677,-0.03169 0.27513,0.05844 0.392,0 0.0871,-0.04355 0.0435,-0.217776 0.13066,-0.261331 0.11687,-0.05844 0.27513,0.05843 0.392,0 0.0871,-0.04355 0.0496,-0.207307 0.13066,-0.26133 0.0725,-0.04832 0.17869,0.02755 0.26133,0 0.24094,-0.08031 0.45016,-0.239615 0.65333,-0.391996 0.0348,-0.02613 -0.0308,-0.09987 0,-0.130665 0.13773,-0.137733 0.36059,-0.153284 0.52266,-0.261331 0.37384,-0.249223 0.67586,-0.687119 0.91466,-1.045321 0.20012,-0.300186 0.0746,0.05603 0.39199,-0.261331 0.43257,-0.432561 0.11273,-0.402242 0.52266,-0.914656 0.0608,-0.07605 0.1803,-0.07664 0.26134,-0.130666 0.12697,-0.08465 0.46682,-0.541654 0.52266,-0.653326 0.0389,-0.07791 -0.0324,-0.18045 0,-0.26133 0.32107,-0.802686 0.11732,-0.117322 0.52266,-0.522661 0.1003,-0.100304 0.075,-0.411345 0.13066,-0.522661 0.0195,-0.03896 0.0999,0.0308 0.13067,0 0.0616,-0.0616 -0.0779,-0.222373 0,-0.26133 0.0779,-0.03896 0.2402,0.08451 0.26133,0 0.0435,-0.174221 -0.0871,-0.348441 -0.13067,-0.522661 z"
   id="path12076" /><path
   style="opacity:1;fill:#576c3b;fill-opacity:1;fill-rule:evenodd;stroke:none;stroke-width:1.021;stroke-dasharray:none;stroke-opacity:1;paint-order:markers stroke fill"
   d="m 42.202192,110.49288 c 0.124589,-0.0168 0.222877,-0.34037 0.323329,-0.41571 0.03895,-0.0292 0.10055,-0.0158 0.138569,-0.0462 0.04335,-0.0347 0.0577,-0.0952 0.09238,-0.13857 0.105068,-0.13133 0.255449,-0.20926 0.369518,-0.32333 0.03925,-0.0392 0.04973,-0.10303 0.09238,-0.13857 0.0529,-0.0441 0.127468,-0.0542 0.184759,-0.0924 0.137127,-0.0914 0.06122,-0.10741 0.184759,-0.23095 0.07851,-0.0785 0.191846,-0.11368 0.277139,-0.18475 0.137215,-0.11435 0.26624,-0.22369 0.415707,-0.32333 0.170547,-0.1137 0.383731,-0.16344 0.554277,-0.27714 0.03624,-0.0242 0.05343,-0.0729 0.09238,-0.0924 0.05678,-0.0284 0.12641,-0.0212 0.184759,-0.0462 0.625379,-0.26802 -0.443835,0.10293 0.323328,-0.18476 0.05944,-0.0223 0.127979,-0.0178 0.184759,-0.0462 0.06886,-0.0344 0.114411,-0.1073 0.184759,-0.13857 0.07174,-0.0319 0.157168,-0.0194 0.230949,-0.0462 0.430438,-0.15652 0.844219,-0.39581 1.293313,-0.50809 0.10562,-0.0264 0.218134,-0.0181 0.323328,-0.0462 0.127107,-0.0339 0.24472,-0.097 0.369518,-0.13856 0.362613,-0.12088 0.742474,-0.16947 1.108554,-0.27714 0.14013,-0.0412 0.274452,-0.1014 0.415708,-0.13857 0.30369,-0.0799 0.619141,-0.1086 0.923795,-0.18476 0.155946,-0.039 0.305524,-0.10134 0.461898,-0.13857 0.578228,-0.13767 1.174459,-0.20234 1.75521,-0.32333 0.171858,-0.0358 0.336905,-0.0997 0.508087,-0.13857 0.580087,-0.13184 1.174703,-0.16104 1.755211,-0.27714 0.768865,-0.15377 1.538873,-0.3174 2.309488,-0.46189 0.578246,-0.10843 1.17804,-0.11552 1.75521,-0.23095 0.109912,-0.022 0.212223,-0.0776 0.323328,-0.0924 0.229432,-0.0306 0.463416,-0.0156 0.692847,-0.0462 1.204878,-0.16065 2.412088,-0.31614 3.6028,-0.55428 0.3502,-0.07 0.710992,-0.08 1.062365,-0.13857 0.387593,-0.0646 0.770003,-0.154 1.154744,-0.23095 0.350199,-0.07 0.710992,-0.08 1.062364,-0.13857 0.801885,-0.13364 0.04344,-0.0457 0.785226,-0.18476 0.843872,-0.15822 1.692218,-0.32796 2.540436,-0.46189 0.15284,-0.0241 0.309057,-0.0221 0.461898,-0.0462 0.848684,-0.13401 1.687183,-0.34555 2.540436,-0.4619 0.719532,-0.0981 0.286692,0.005 0.969985,-0.0924 0.505625,-0.0722 1.025152,-0.16864 1.524262,-0.27714 0.186098,-0.0404 0.366648,-0.10594 0.554277,-0.13857 0.167545,-0.0291 0.339907,-0.021 0.508087,-0.0462 0.140379,-0.0211 0.277138,-0.0616 0.415708,-0.0924 0.307931,-0.0308 0.616872,-0.0528 0.923795,-0.0924 0.170723,-0.022 0.337678,-0.068 0.508087,-0.0924 0.369649,-0.0528 0.74038,-0.0716 1.108554,-0.13857 0.124915,-0.0227 0.243831,-0.0744 0.369518,-0.0924 0.305366,-0.0436 0.615828,-0.0539 0.923795,-0.0924 0.111223,-0.0139 0.212105,-0.0785 0.323328,-0.0924 0.303689,-0.10645 0.616745,-0.0183 0.923795,-0.0462 0.06322,-0.006 0.121768,-0.0383 0.184759,-0.0462 0.07639,-0.01 0.162093,0.0344 0.230949,0 0.01947,-0.01 0.02507,-0.0409 0.04619,-0.0462 0.07245,-0.0181 0.158494,0.0181 0.230949,0 0.156273,-0.0391 0.30443,-0.0609 0.461897,-0.0924 0.04,-0.008 0.202602,0.0283 0.230949,0 0.03044,-0.0304 -0.159034,-0.13331 -0.184759,-0.18476 -0.02177,-0.0436 -0.01698,-0.0996 -0.04619,-0.13857 -0.02066,-0.0275 -0.06804,-0.0219 -0.09238,-0.0462 -0.04047,-0.0405 -0.112171,-0.17815 -0.13857,-0.23095 -0.03706,-0.0741 -0.03857,-0.16368 -0.09238,-0.23095 -0.442049,-0.44205 0.08263,0.12394 -0.184759,-0.277139 -0.0085,-0.01281 -0.0353,0.01089 -0.04619,0 -0.01089,-0.01089 0.01089,-0.0353 0,-0.04619 -0.01089,-0.01089 -0.03242,0.0069 -0.04619,0 -0.07875,-0.03938 -0.10729,-0.168391 -0.138569,-0.230949 -0.03695,-0.0739 -0.147807,-0.110855 -0.184759,-0.184759 -0.01364,-0.02727 -0.07706,-0.169437 -0.09238,-0.184759 -0.01089,-0.01089 -0.0393,0.01377 -0.04619,0 -0.01377,-0.02754 0.0097,-0.06317 0,-0.09238 -0.02567,-0.077 -0.149194,-0.103004 -0.184759,-0.13857 -0.0085,-0.0085 -0.03768,-0.130058 -0.04619,-0.138569 -0.0154,-0.0154 -0.123173,-0.03079 -0.138569,-0.04619 -0.0054,-0.0054 -0.168492,-0.252738 -0.184759,-0.277138 -0.03843,-0.05765 -0.128253,-0.08206 -0.184759,-0.138569 -0.0328,-0.0328 -0.08417,-0.130364 -0.09238,-0.13857 -0.04869,-0.04869 -0.13607,-0.04369 -0.184759,-0.09238 -0.01089,-0.01089 0.01377,-0.0393 0,-0.04619 -0.02754,-0.01377 -0.06484,0.01377 -0.09238,0 -0.01377,-0.0069 0.01089,-0.0353 0,-0.04619 -0.02124,-0.02124 -0.148435,-0.07422 -0.184759,-0.09238 -0.06546,-0.03273 -0.5767,-0.01 -0.646657,0 -0.194015,0.02772 -0.293394,0.112543 -0.461897,0.184759 -0.103026,0.04415 -0.218377,0.05302 -0.323329,0.09238 -0.128943,0.04835 -0.238873,0.141211 -0.369518,0.184759 -0.08885,0.02962 -0.187434,0.01928 -0.277138,0.04619 -0.186661,0.056 -0.325632,0.208718 -0.508087,0.277139 -0.11888,0.04458 -0.255959,0.0356 -0.369518,0.09238 -0.06886,0.03443 -0.115904,0.104142 -0.184759,0.138569 -0.11356,0.05678 -0.250639,0.0478 -0.369518,0.09238 -0.128943,0.04835 -0.240575,0.136405 -0.369518,0.184759 -0.17592,0.06597 -0.381709,0.06461 -0.554277,0.138569 -0.05102,0.02187 -0.08754,0.07051 -0.13857,0.09238 -0.213506,0.0915 -0.469774,0.121024 -0.692846,0.184759 -0.265959,0.07599 -0.665923,0.240299 -0.923795,0.277139 -0.303647,0.0434 -0.622852,0.0784 -0.923795,0.13857 -0.445954,0.0892 0.378725,0.005 -0.230949,0.0924 -0.106693,0.0152 -0.217018,-0.0177 -0.323328,0 -0.169797,0.0283 -0.33829,0.0641 -0.508087,0.0924 -0.110564,0.0184 -0.212366,0.0765 -0.323329,0.0924 -0.45828,0.0655 -0.925762,0.13366 -1.385692,0.18476 -0.283225,0.0315 -0.55357,0.14201 -0.831416,0.18476 -0.755795,0.11628 0.250111,-0.1501 -0.600467,0.0462 -0.09488,0.0219 -0.181923,0.072 -0.277138,0.0924 -0.121376,0.026 -0.249578,0.0142 -0.369518,0.0462 -0.113298,0.0302 -0.210031,0.10835 -0.323328,0.13857 -0.23988,0.064 -0.495595,0.0437 -0.739036,0.0924 -0.39388,0.0788 -0.800258,0.23262 -1.200934,0.27714 -0.07651,0.008 -0.154437,-0.009 -0.230949,0 -0.307594,0.0342 -0.615308,0.13729 -0.923795,0.18475 -0.863522,0.13285 -1.724936,0.2721 -2.586626,0.41571 -0.64236,0.10706 -1.302167,0.14958 -1.939969,0.27714 -0.216165,0.0432 -0.433979,0.0806 -0.646657,0.13857 -0.215034,0.0587 -0.42024,0.1596 -0.646656,0.18476 -0.07651,0.008 -0.154348,-0.008 -0.230949,0 -0.349258,0.0349 -0.902329,0.15138 -1.247124,0.23095 -0.09488,0.0219 -0.182255,0.0705 -0.277138,0.0924 -0.850577,0.19628 0.155329,-0.0701 -0.600467,0.0462 -0.110785,0.017 -0.213416,0.0704 -0.323328,0.0924 -0.228468,0.0457 -0.463024,0.0541 -0.692846,0.0924 -0.07744,0.0129 -0.153966,0.0308 -0.230949,0.0462 -0.09238,0.0308 -0.181653,0.0733 -0.277139,0.0924 -0.06039,0.0121 -0.123478,-0.006 -0.184759,0 -0.249069,0.0249 -0.490873,0.116 -0.739036,0.13856 -0.092,0.008 -0.185833,-0.014 -0.277138,0 -0.110786,0.0171 -0.212366,0.0765 -0.323328,0.0924 -0.106693,0.0152 -0.21587,-0.008 -0.323329,0 -0.415013,0.0319 -0.833471,0.1434 -1.247123,0.18476 -0.566365,0.0566 -1.140626,0.0487 -1.709021,0.0924 -0.336066,0.0258 -0.680856,-0.0335 -1.016174,0 -0.570187,0.057 -1.133137,0.0924 -1.709021,0.0924 -0.800623,0 -1.601245,0 -2.401867,0 -0.332369,0 -0.72811,0.0418 -1.062365,0 -0.388081,-0.0485 -0.709999,-0.0462 -1.108554,-0.0462 -0.04838,0 -0.692618,-2.3e-4 -0.692846,0 -0.02434,0.0243 -0.02553,0.0648 -0.04619,0.0924 -0.07698,0.10265 -0.153966,0.11548 -0.230949,0.23095 -0.02701,0.0405 -0.02114,0.0968 -0.04619,0.13857 -0.06443,0.10738 -0.201827,0.17672 -0.277139,0.27714 -0.04131,0.0551 -0.05107,0.12967 -0.09238,0.18476 -0.04997,0.0666 -0.13817,0.11487 -0.184759,0.18476 -0.222041,0.33306 -0.238812,0.75476 -0.415708,1.10855 -0.1119,0.2238 -0.221166,0.44097 -0.277139,0.69285 -0.01002,0.0451 0.0076,0.093 0,0.13857 -0.008,0.048 -0.03079,0.0924 -0.04619,0.13856 -0.0154,0.10778 -0.03417,0.21513 -0.04619,0.32333 -0.02156,0.19405 0,0.40523 0,0.60047 0,0.38369 -0.02879,0.77982 0.04619,1.15474 0.02094,0.1047 0.09103,0.27445 0.138569,0.36952 0.0097,0.0195 0.03079,0.0308 0.04619,0.0462 0.03079,0.0462 0.07176,0.087 0.09238,0.13857 0.01144,0.0286 -0.01377,0.0648 0,0.0924 0.04619,0.0924 0.09238,0.0693 0.138569,0.13857 0.07912,0.11867 0.134475,0.33618 0.184759,0.4619 z"
   id="path13054" /><path
   style="display:none;opacity:1;fill:#e7e5b1;fill-opacity:1;fill-rule:evenodd;stroke:none;stroke-width:1.021;stroke-dasharray:none;stroke-opacity:1;paint-order:markers stroke fill"
   d="m 68.498721,75.067834 c 0.308516,-0.154258 0.38985,-0.209344 0.795266,-0.305871 0.752728,-0.179221 1.559476,-0.266369 2.324623,-0.367046 1.185264,-0.155956 2.356811,-0.279878 3.548108,-0.367046 0.979779,-0.07169 2.018657,-0.104856 2.99754,-0.244697 0.205863,-0.02941 0.404727,-0.102633 0.611743,-0.122349 0.223296,-0.02127 0.448843,0.01019 0.672917,0 2.343554,-0.106525 4.685668,-0.244697 7.035043,-0.244697 0.70941,0 1.432329,-0.03375 2.1411,0 0.409399,0.0195 0.81401,0.104546 1.223486,0.122349 0.754264,0.03279 1.5078,0.06117 2.263448,0.06117 0.249559,0 1.019399,0.07146 1.162312,0 0.0377,-0.01885 0,-0.503964 0,-0.550568 0,-0.489395 0,-0.978789 0,-1.468183 0,-0.187777 0.03111,-0.425099 0,-0.611743 -0.0106,-0.06361 -0.04078,-0.122349 -0.06117,-0.183523 0,-0.14274 0.01576,-0.286353 0,-0.42822 -0.005,-0.04532 -0.05223,-0.07764 -0.06117,-0.122348 -0.02799,-0.139969 0.02019,-0.286915 0,-0.42822 -0.0091,-0.06384 -0.05476,-0.11936 -0.06117,-0.183523 -0.0142,-0.142032 0.0142,-0.286189 0,-0.42822 -0.0222,-0.222048 -0.147775,-0.458427 -0.183523,-0.672917 -0.01874,-0.11245 -0.02153,-0.696158 -0.06117,-0.795266 -0.03387,-0.08467 -0.09351,-0.158184 -0.122349,-0.244697 -0.01935,-0.05803 0.02736,-0.128807 0,-0.183523 -0.0129,-0.02579 -0.05205,-0.03382 -0.06117,-0.06117 -0.02579,-0.07738 0.02579,-0.167317 0,-0.244698 -0.0091,-0.02736 -0.05206,-0.03382 -0.06117,-0.06117 -0.02579,-0.07738 0.01978,-0.165567 0,-0.244697 0.04544,-0.113216 -0.104517,-0.112196 -0.122349,-0.183523 -0.01484,-0.05935 0.012,-0.123536 0,-0.183523 -0.02673,-0.133663 -0.08896,-0.29467 -0.122349,-0.42822 -0.03316,-0.132642 -0.150362,-0.173229 -0.183522,-0.305871 -0.01484,-0.05935 0.01935,-0.125488 0,-0.183523 -0.02252,-0.06755 -0.107486,-0.185244 -0.122349,-0.244697 -0.01484,-0.05935 0.012,-0.123537 0,-0.183523 -0.110668,-0.553341 -0.0058,0.166163 -0.122349,-0.183523 -0.02579,-0.07738 0.02579,-0.167317 0,-0.244697 -0.02758,-0.08273 -0.08211,-0.164229 -0.122348,-0.244697 -0.02736,-0.05472 0.01935,-0.125488 0,-0.183523 -0.03241,-0.09723 -0.137952,-0.214729 -0.183523,-0.305871 -0.03434,-0.06869 -0.01383,-0.258522 -0.06117,-0.305872 -0.03224,-0.03224 -0.101957,-0.02039 -0.122349,-0.06117 -0.04925,-0.0985 -0.0017,-0.267385 -0.122348,-0.42822 -0.190584,-0.254111 -0.343979,-0.537028 -0.550569,-0.795266 -0.242151,-0.302688 0.01209,0.07326 -0.305871,-0.244697 -0.06448,-0.06448 -0.07176,-0.16882 -0.122349,-0.244697 -0.05611,-0.08416 -0.09437,-0.06292 -0.183523,-0.122349 -0.06748,-0.04499 -0.111254,-0.147388 -0.183523,-0.183522 -0.418507,-0.209254 -0.788868,-0.54897 -1.28466,-0.672918 -0.431941,-0.107985 -1.650626,0.08145 -2.018751,0.122349 -0.223853,0.02487 -0.453674,0.0096 -0.672917,0.06117 -0.133154,0.03133 -0.238492,0.136776 -0.367046,0.183523 -0.09772,0.03553 -0.207231,0.02829 -0.305871,0.06117 -0.08651,0.02884 -0.157537,0.09553 -0.244697,0.122349 -0.283775,0.08731 -0.572058,0.159383 -0.85644,0.244697 -0.199183,0.05975 -0.411118,0.06763 -0.611743,0.122349 -0.712087,0.194205 -1.387966,0.482469 -2.079926,0.734091 -0.308042,0.112015 -0.685576,0.159265 -0.978789,0.305872 -0.09119,0.0456 -0.151527,0.142114 -0.244697,0.183522 -0.09501,0.04223 -0.210856,0.01895 -0.305871,0.06117 -0.09317,0.04141 -0.163132,0.122348 -0.244697,0.183523 -0.122349,0.02039 -0.248241,0.02553 -0.367046,0.06117 -0.218368,0.06551 -0.407828,0.203914 -0.611743,0.305871 -0.302253,0.151127 -0.609154,0.291127 -0.917614,0.42822 -0.218234,0.09699 -0.535386,0.173401 -0.734091,0.305872 -0.07198,0.04799 -0.106143,0.144833 -0.183523,0.183523 -0.093,0.0465 -0.210857,0.01895 -0.305872,0.06117 -0.09317,0.04141 -0.158237,0.129485 -0.244697,0.183523 -0.23095,0.144343 -0.503141,0.222702 -0.734091,0.367045 -0.323127,0.201955 -0.646266,0.427008 -0.978789,0.611743 -0.412096,0.228943 -0.216227,-0.0018 -0.611743,0.305872 -0.09105,0.07082 -0.153644,0.173878 -0.244697,0.244697 -0.09385,0.073 -0.203914,0.122348 -0.305871,0.183523 -0.183523,0.163131 -0.357492,0.337691 -0.550569,0.489394 -0.272673,0.214243 -0.372658,0.175972 -0.672917,0.367046 -0.09018,0.05739 -0.43201,0.362354 -0.550568,0.42822 -0.09599,0.05333 -0.20988,0.06902 -0.305872,0.122348 -0.178253,0.09903 -0.307008,0.275853 -0.489394,0.367046 -0.115352,0.05768 -0.251695,0.06467 -0.367046,0.122348 -1.022718,0.51136 0.428843,-0.122704 -0.42822,0.367046 -0.073,0.04171 -0.167419,0.02806 -0.244697,0.06117 -0.253406,0.108603 -0.390422,0.356602 -0.611743,0.489395 -0.05529,0.03318 -0.128229,0.028 -0.183523,0.06117 -0.305871,0.183523 0,0.06117 -0.183523,0.183523 -0.07588,0.05058 -0.180213,0.05787 -0.244697,0.122348 -0.05199,0.05199 -0.07824,0.124705 -0.122348,0.183523 -0.04411,0.05882 -0.07036,0.131535 -0.122349,0.183523 -0.03224,0.03224 -0.09011,0.02893 -0.122348,0.06117 -0.110283,0.110283 -0.236038,0.410902 -0.305872,0.550569 -0.172352,0.344704 -0.195753,2.287933 -0.06117,2.691668 0.09176,0.275285 -0.09176,0.64233 0,0.917615 0.02325,0.06975 0.0991,0.113773 0.122348,0.183523 0.02579,0.07738 -0.02579,0.167317 0,0.244697 0.0091,0.02736 0.04828,0.03538 0.06118,0.06117 0.01824,0.03648 -0.0129,0.08366 0,0.122349 0.0667,0.20011 0.146319,0.173435 0.367045,0.305871 z"
   id="path6571"
   inkscape:label="eyeshade" /><path
   style="opacity:1;fill:#576c3b;fill-opacity:1;fill-rule:evenodd;stroke:none;stroke-width:1.021;stroke-dasharray:none;stroke-opacity:1;paint-order:markers stroke fill"
   d="m 30.024169,107.45491 c 0.08996,0.0355 0.19833,0.17083 0.284329,0.14216 0.01272,-0.004 0.01644,-0.0224 0.02843,-0.0284 0.09963,-0.0498 0.214365,-0.0645 0.312762,-0.11373 0.03056,-0.0153 0.05389,-0.0434 0.0853,-0.0569 0.03592,-0.0154 0.07781,-0.013 0.113732,-0.0284 0.113696,-0.0487 0.0569,-0.065 0.170597,-0.11373 0.02654,-0.0114 0.165832,-0.0347 0.199031,-0.0569 0.03346,-0.0223 0.05039,-0.0653 0.0853,-0.0853 0.03393,-0.0194 0.07781,-0.013 0.113732,-0.0284 0.07023,-0.0301 0.136852,-0.0693 0.19903,-0.11373 0.03272,-0.0234 0.05039,-0.0654 0.0853,-0.0853 0.03393,-0.0194 0.07714,-0.0147 0.113731,-0.0284 0.07937,-0.0298 0.15693,-0.0667 0.227464,-0.11373 0.0778,-0.0519 0.14047,-0.1271 0.227463,-0.17059 0.05361,-0.0268 0.116984,-0.0301 0.170597,-0.0569 0.399112,-0.19956 0.834926,-0.36602 1.27948,-0.45493 0.2732,-0.0546 0.551566,-0.0837 0.824554,-0.14216 0.141762,-0.0304 0.284732,-0.0549 0.426494,-0.0853 0.248998,-0.0534 0.48391,-0.14223 0.739255,-0.1706 0.39703,-0.0441 0.791387,-0.0569 1.194182,-0.0569 0.04155,0 0.203949,0.0235 0.227463,0 0.05452,-0.0545 -0.30319,-0.33163 -0.341195,-0.36963 -0.04291,-0.0429 -0.07313,-0.0971 -0.113731,-0.14216 -0.202203,-0.22467 -0.431188,-0.42301 -0.653957,-0.62553 -0.472527,-0.42957 0.159998,0.13157 -0.255896,-0.28433 -0.05234,-0.0523 -0.115825,-0.0924 -0.170597,-0.14216 -0.09918,-0.0902 -0.180593,-0.19946 -0.284329,-0.28433 -0.0529,-0.0433 -0.117702,-0.0704 -0.170598,-0.11373 -0.05187,-0.0424 -0.08855,-0.10196 -0.142164,-0.14217 -0.02398,-0.018 -0.0596,-0.013 -0.0853,-0.0284 -0.04827,-0.029 -0.09045,-0.0879 -0.142164,-0.11373 -0.03997,-0.02 -0.161028,0 -0.199031,0 -0.425314,0 -0.812071,0.0964 -1.222614,0.19903 -0.37785,0.0945 -0.760077,0.16884 -1.137316,0.25589 -0.214437,0.0495 -0.413758,0.14128 -0.625524,0.19904 -0.117545,0.032 -0.256592,0.0369 -0.369627,0.0853 -0.03141,0.0135 -0.05389,0.0434 -0.0853,0.0569 -0.03592,0.0154 -0.07878,0.011 -0.113732,0.0284 -0.123208,0.0616 -0.246419,0.16586 -0.369627,0.22747 -0.215999,0.10799 -0.371714,0.18794 -0.511793,0.39806 -0.154008,0.23101 -0.161086,0.50208 -0.19903,0.76768 -0.07176,0.5023 -0.05687,0.99834 -0.05687,1.50695 0,0.33632 -0.02543,0.0659 0.02843,0.22746 0.007,0.0211 -0.01379,0.10339 0,0.11373 0.03126,0.0235 0.07582,0.019 0.113732,0.0284 z"
   id="path13060" /><path
   style="opacity:1;fill:#576c3b;fill-opacity:1;fill-rule:evenodd;stroke:none;stroke-width:1.021;stroke-dasharray:none;stroke-opacity:1;paint-order:markers stroke fill"
   d="m 86.36867,105.96872 c 0.09847,-0.0197 0.491791,0.20889 0.595094,0.14002 0.02171,-0.0145 0.01656,-0.0516 0.03501,-0.07 0.04811,-0.0481 0.122759,-0.0615 0.175028,-0.10501 0.17793,-0.14828 0.345062,-0.30934 0.525082,-0.45507 0.0654,-0.0529 0.144911,-0.0867 0.210034,-0.14003 0.253685,-0.20756 0.481169,-0.45733 0.735116,-0.6651 0.211286,-0.17287 0.409624,-0.32107 0.595094,-0.52508 0.111556,-0.12272 0.197782,-0.2678 0.315049,-0.38507 0.06444,-0.0644 0.145592,-0.11058 0.210034,-0.17502 0.137493,-0.1375 0.188082,-0.2454 0.315049,-0.38506 0.126127,-0.13874 0.258935,-0.24633 0.385061,-0.38506 0.0613,-0.0674 0.110586,-0.1456 0.175028,-0.21004 0.156761,-0.15676 0.38555,-0.35044 0.560088,-0.49008 0.390715,-0.31257 0.02566,0.0483 0.455072,-0.31504 0.389781,-0.32982 0.02172,-0.13969 0.595094,-0.49008 0.07583,-0.0463 0.167883,-0.0609 0.245039,-0.10502 0.569784,-0.32559 -0.06045,-0.0205 0.455072,-0.31505 0.09061,-0.0518 0.189894,-0.0874 0.280044,-0.14002 0.05039,-0.0294 0.08784,-0.0789 0.140022,-0.10502 0.08917,-0.0446 0.189524,-0.0632 0.280044,-0.10501 0.06178,-0.0285 0.113088,-0.0769 0.175028,-0.10502 0.06718,-0.0305 0.143027,-0.0391 0.210033,-0.07 0.08542,-0.0394 0.158852,-0.10232 0.245039,-0.14002 0.302145,-0.13219 0.630182,-0.19256 0.945149,-0.280051 1.125756,-0.31271 -0.433555,0.09251 0.595094,-0.210033 0.582699,-0.171382 0.06505,0.0092 0.560088,-0.105017 0.246473,-0.05688 0.486708,-0.156803 0.735116,-0.210033 0.08068,-0.01729 0.164362,-0.01772 0.245039,-0.035 0.14432,-0.03093 0.275336,-0.111076 0.420066,-0.140023 0.05721,-0.01144 0.117136,0.0072 0.175028,0 0.09893,-0.01237 0.185465,-0.07349 0.280044,-0.105016 0.181399,-0.06047 0.376519,-0.08996 0.560089,-0.140022 0.135135,-0.03686 0.335009,-0.02497 0.455072,-0.105017 0.0047,-0.0032 0,-0.370535 0,-0.490077 0,-0.359581 0.04461,-0.833325 0,-1.190188 -0.01597,-0.127767 -0.18691,-0.396943 -0.280045,-0.490078 -0.01709,-0.01709 -0.178863,-0.08943 -0.210033,-0.105016 -0.147682,-0.07384 -0.466768,0.101524 -0.595094,0.140022 -0.103041,0.03091 -0.212008,0.0391 -0.315049,0.07001 -0.265843,0.07975 -0.590854,0.120399 -0.840133,0.245039 -0.03763,0.01882 -0.06595,0.05439 -0.105017,0.07001 -0.1,0.04 -0.244087,0.0246 -0.350055,0.07001 -0.141401,0.0606 -0.276101,0.152447 -0.420066,0.210033 -0.199717,0.07989 -0.125711,-0.0072 -0.280045,0.07001 -0.284995,0.142498 -0.60739,0.271528 -0.910143,0.385061 -0.0901,0.03378 -0.18995,0.03623 -0.280044,0.07001 -0.299604,0.112351 0.03242,0.04184 -0.31505,0.105017 -0.07001,0.01167 -0.140022,0.02334 -0.210033,0.035 -0.05834,0.02334 -0.113862,0.05562 -0.175028,0.07001 -0.295702,0.06958 -0.580297,0.116059 -0.875138,0.175028 -0.222348,0.04447 -0.245808,0.08295 -0.455072,0.140022 -0.183906,0.05016 -0.37328,0.07105 -0.560089,0.105016 -0.08358,0.0152 -0.161246,0.05605 -0.245038,0.07001 -0.111065,0.01851 -0.241505,0.0079 -0.350056,0.035 -0.134953,0.03374 -0.247773,0.0854 -0.38506,0.105017 -0.221534,0.03165 -0.609325,0.07713 -0.805127,0.175027 -0.222926,0.111463 -0.370114,0.264632 -0.560089,0.420067 -0.06512,0.05328 -0.153433,0.07776 -0.210033,0.140022 -0.06328,0.06961 -0.08647,0.167691 -0.140022,0.245038 -0.05187,0.07493 -0.125746,0.133374 -0.175028,0.210034 -0.05644,0.08776 -0.08824,0.189438 -0.140022,0.280048 -0.121244,0.21218 -0.273427,0.43458 -0.420066,0.6301 -0.04079,0.0544 -0.26736,0.31353 -0.31505,0.38506 -0.316146,0.55326 0.02918,-0.0217 -0.280044,0.42007 -0.144002,0.20572 -0.214083,0.45359 -0.350056,0.6651 -0.07702,0.11981 -0.158196,0.23716 -0.245038,0.35006 -0.03018,0.0392 -0.08097,0.0617 -0.105017,0.10502 -0.07611,0.137 -0.142963,0.37417 -0.210033,0.52508 -0.08533,0.192 -0.219917,0.39467 -0.280044,0.59509 -0.02039,0.068 -0.01075,0.14333 -0.03501,0.21004 -0.02325,0.0639 -0.0835,0.11048 -0.105016,0.17502 -0.02609,0.0783 -0.015,0.165 -0.03501,0.24504 -0.01524,0.061 -0.05195,0.11484 -0.07001,0.17503 -0.03419,0.11398 -0.04325,0.23411 -0.07001,0.35005 -0.02992,0.12964 -0.08315,0.25383 -0.105017,0.38507 -0.03558,0.21345 0.03456,0.28094 -0.07001,0.49007 z"
   id="path13069" /><path
   id="shape0"
   d="m 148,73.806987 -1.2,-13.9 -4.1,-13.6 -8.5,-14.4 -9.4,-11.2 -11.3,-8.8 -12.8,-6.3000001 -14.6,-3.9 -11.8,-1.00000001 -11.7,1.40000001 -15.6,4.1 -11.4,5.1000001 -11,8.5 -10.2,11.6 -8,15.4 -3.2,7.9 -2.2,13.5 v 13.9 l 1.6,10.5 4.5,12.300003 7.5,13.7 12,12.1 9.6,7.2 13.6,6.7 7.4,2.2 8.9,0.4 4.6,1.1 10.9,0.1 12.2,-4.5 12.7,-7.3 18.3,-14 15.6,-18.6 6.9,-11.100003 1.3,-7.3 v -6 c 0,0 -0.2,-1.9 -0.6,-5.8 z"
   fill-rule="evenodd"
   clip-rule="evenodd"
   fill="#c0fdf1"
   fill-opacity=".4863"
   inkscape:label="helmet color"
   style="display:inline;mix-blend-mode:saturation;fill:#c0fdf4;fill-opacity:0.34507" />
  
  <path
   style="opacity:1;fill:#e0fffc;fill-opacity:0.34507;fill-rule:evenodd;stroke:none;stroke-width:1.021;stroke-dasharray:none;stroke-opacity:1;paint-order:markers stroke fill"
   id="path18636"
   d="m 47.681055,10.069844 c -0.811983,0.515746 -1.658054,0.976612 -2.497262,1.446612 -1.373263,0.710987 -2.694735,1.513921 -4.025921,2.299448 -1.235767,0.715624 -2.40273,1.540828 -3.585432,2.339099 -1.082219,0.739014 -2.162343,1.481878 -3.236919,2.232089 -0.975924,0.67469 -1.914231,1.402575 -2.857525,2.12186 -0.869934,0.64372 -1.693875,1.344831 -2.478914,2.089032 -0.784772,0.735527 -1.606549,1.429571 -2.407589,2.146937 -0.807492,0.762233 -1.683607,1.445884 -2.521225,2.173674 -0.69019,0.611796 -1.339308,1.26604 -1.951377,1.955252 -0.586777,0.705048 -1.127136,1.446005 -1.677166,2.179392 -0.360473,0.517804 -0.769,1.000341 -1.136652,1.512685 -0.172868,0.240901 -0.339699,0.502691 -0.501613,0.750929 -0.494846,0.688964 -0.944814,1.407106 -1.384039,2.132059 -0.391079,0.661729 -0.789315,1.319224 -1.177854,1.982389 -0.373808,0.588546 -0.705411,1.202094 -1.049697,1.808207 -0.285269,0.461018 -0.530686,0.949494 -0.846449,1.3909 -0.150168,0.210659 -0.07886,0.10561 -0.214445,0.314797 0,0 6.431798,3.70284 6.431798,3.70284 v 0 c 0.09091,-0.196099 0.04006,-0.09297 0.154569,-0.308378 0.271313,-0.489607 0.529473,-0.986308 0.800376,-1.476148 0.309385,-0.619764 0.660354,-1.212061 1.020798,-1.803139 0.365978,-0.667737 0.743678,-1.328651 1.124545,-1.987996 0.436002,-0.715421 0.871342,-1.430808 1.345677,-2.122062 0.511252,-0.760576 1.028377,-1.516578 1.593604,-2.238734 0.543496,-0.716209 1.106643,-1.417665 1.682593,-2.108079 0.592838,-0.663867 1.199995,-1.315675 1.851205,-1.923169 0.807843,-0.752257 1.66388,-1.450215 2.488431,-2.183888 0.822362,-0.706404 1.638419,-1.418132 2.42971,-2.159531 0.779625,-0.717567 1.596981,-1.391987 2.433394,-2.042312 0.913879,-0.727639 1.829605,-1.455644 2.788806,-2.123088 1.062662,-0.747774 2.114294,-1.509297 3.170818,-2.265536 1.161549,-0.808509 2.360872,-1.559479 3.560536,-2.309847 1.292084,-0.80922 2.588394,-1.616378 3.966743,-2.27351 0.921207,-0.419673 1.870745,-0.875517 2.880133,-1.024728 0,0 -6.173657,-4.228056 -6.173657,-4.228056 z" /><path
   id="shape14"
   d="m 81.9,147.70699 -7.1,-3 -5.7,-3.8 -1.9,3.3 -0.8,2.7 0.8,0.3 4.8,1.2 6.1,-0.1 c 0,0.1 1.3,-0.1 3.8,-0.6 z"
   fill-rule="evenodd"
   clip-rule="evenodd"
   fill="#dbcb88"
   style="display:inline" />
  <path
   style="opacity:1;fill:#576c3b;fill-opacity:1;fill-rule:evenodd;stroke:none;stroke-width:1.021;stroke-dasharray:none;stroke-opacity:1;paint-order:markers stroke fill"
   d="m 20.776434,104.43805 c 0.759256,-0.0703 1.50177,0.11268 2.255531,0.15037 1.272368,0.0636 2.573516,-0.007 3.834402,0.15037 0.220763,0.0276 0.457351,-0.0366 0.676659,0 0.208884,-0.14625 0.192006,0.12319 0.300738,0.15037 0.212927,0.0532 0.394192,0.026 0.601475,0.15037 0.06078,0.0365 0.08697,0.11867 0.150368,0.15037 0.04483,0.0224 0.105538,-0.0224 0.150369,0 0.02242,0.0112 -0.01772,0.0575 0,0.0752 0.03891,0.0389 0.261822,0.0363 0.300737,0.0752 0.03963,0.0396 0.02856,0.11928 0.07519,0.15036 0.0417,0.0278 0.102818,-0.0159 0.150368,0 0.02905,0.01 0.413102,0.22556 0.451107,0.22556 0.07518,0 0.01823,-0.15262 0,-0.22556 -0.125238,-0.50095 -0.635425,-0.72758 -0.902213,-1.12776 -0.19876,-0.29814 -0.249278,-0.0989 -0.451106,-0.30074 -0.04606,-0.0461 -0.06401,-0.19676 -0.150369,-0.22555 -0.04755,-0.0158 -0.102817,0.0159 -0.150368,0 -0.08906,-0.0297 -0.141011,-0.18328 -0.225553,-0.22556 -0.09284,-0.0464 -0.207898,-0.10394 -0.300738,-0.15036 -0.120295,-0.0601 -0.180442,-0.24059 -0.300737,-0.30074 -0.684521,-0.34226 0.09684,0.17202 -0.300738,-0.22555 -0.137625,-0.13763 -0.452831,-0.18926 -0.601474,-0.30074 -0.02005,-0.015 0.01772,-0.0575 0,-0.0752 -0.01772,-0.0177 -0.05277,0.0112 -0.07518,0 -0.409659,-0.20483 0.763605,0.10003 -0.375921,-0.22555 -0.183158,-0.0523 -0.482312,0 -0.67666,0 -0.294844,0 -0.609625,-0.0366 -0.902212,0 -0.445841,0.0557 -1.580939,0.42742 -1.954793,0.67666 -0.186535,0.12436 -0.402414,0.27639 -0.601475,0.37592 -0.141769,0.0709 -0.319224,0.0625 -0.451106,0.15037 -0.12626,0.0842 -0.237856,0.2317 -0.375922,0.30074 -0.04483,0.0224 -0.114926,-0.0354 -0.150369,0 -0.03544,0.0354 0.03544,0.11492 0,0.15037 -0.01772,0.0177 -0.05277,-0.0112 -0.07518,0 -0.147495,0.0737 0.0058,0.15037 -0.150369,0.15037"
   id="path13167" /><path
   style="opacity:1;fill:#576c3b;fill-opacity:1;fill-rule:evenodd;stroke:none;stroke-width:1.021;stroke-dasharray:none;stroke-opacity:1;paint-order:markers stroke fill"
   d="m 101.3484,103.2327 c 0.41808,-0.53752 0.0397,-0.006 0.28429,-0.45486 0.0554,-0.10155 0.1369,-0.1867 0.19901,-0.28429 0.0653,-0.10267 0.12278,-0.21745 0.199,-0.31272 0.0335,-0.0419 0.083,-0.0698 0.11372,-0.11371 0.0802,-0.11463 0.12388,-0.25154 0.199,-0.36958 0.0254,-0.04 0.0623,-0.0723 0.0853,-0.11372 0.0815,-0.14666 0.14018,-0.30945 0.22743,-0.45486 0.0984,-0.16405 0.0842,-0.0659 0.17057,-0.25586 0.0248,-0.0546 0.0321,-0.11602 0.0569,-0.17058 0.0718,-0.15792 0.18974,-0.28461 0.28429,-0.42643 0.0838,-0.12564 0.14295,-0.27128 0.22743,-0.398011 0.20242,-0.303624 0.44113,-0.609987 0.6823,-0.881299 0.0806,-0.0907 0.14162,-0.198478 0.22743,-0.28429 0.0335,-0.0335 0.0802,-0.05178 0.11372,-0.08529 0.0764,-0.0764 0.12672,-0.17555 0.199,-0.255861 0.13893,-0.15437 0.29687,-0.319442 0.45486,-0.454864 0.072,-0.06167 0.15612,-0.108172 0.22743,-0.170574 0.0404,-0.0353 0.0708,-0.08155 0.11372,-0.113716 0.0339,-0.02543 0.0785,-0.03335 0.11372,-0.05686 0.0505,-0.03366 0.0901,-0.0825 0.14214,-0.113716 0.0438,-0.02626 0.0974,-0.03242 0.14215,-0.05686 0.06,-0.03272 0.11154,-0.07928 0.17057,-0.113716 0.35378,-0.206373 -0.0226,0.04058 0.36958,-0.170574 0.31509,-0.169667 0.0207,-0.06464 0.36958,-0.227432 0.87313,-0.407461 -0.38466,0.233578 0.42643,-0.199003 0.26903,-0.143483 0.5273,-0.313439 0.79601,-0.454864 0.053,-0.02791 0.11796,-0.02816 0.17058,-0.05686 0.0533,-0.02906 0.091,-0.08114 0.14214,-0.113716 0.0536,-0.03413 0.1185,-0.04883 0.17058,-0.08529 0.0439,-0.03074 0.0737,-0.0781 0.11371,-0.113716 0.17828,-0.158469 0.12975,-0.08674 0.34115,-0.255862 0.27927,-0.223413 0.5432,-0.486344 0.79601,-0.739154 0.17777,-0.177768 0.3073,-0.394099 0.45487,-0.597009 0.0357,-0.04907 0.0758,-0.09476 0.11371,-0.142145 0.0474,-0.04738 0.10194,-0.08854 0.14215,-0.142145 0.0458,-0.06112 0.0713,-0.135434 0.11371,-0.199003 0.0337,-0.05049 0.0758,-0.09476 0.11372,-0.142145 0.0379,-0.06633 0.0737,-0.133936 0.11371,-0.199003 0.19271,-0.313139 0.41464,-0.608586 0.62544,-0.909728 0.0425,-0.06063 0.10109,-0.108992 0.14215,-0.170574 0.0235,-0.03526 0.0322,-0.07923 0.0569,-0.113716 0.0234,-0.03272 0.063,-0.05183 0.0853,-0.08529 0.0166,-0.02493 0.0136,-0.05927 0.0284,-0.08529 0.10588,-0.185282 0.25128,-0.3627 0.36958,-0.540151 0.0258,-0.03878 0.17939,-0.22318 0.199,-0.255861 0.01,-0.01625 -0.007,-0.03944 0,-0.05686 0.018,-0.0421 0.13837,-0.235975 0.17058,-0.28429 0.0466,-0.0699 0.15283,-0.178909 0.199,-0.255861 0.0474,-0.07902 0.0713,-0.199457 0.11372,-0.28429 0.004,-0.0085 0.0242,0.0085 0.0284,0 0.0175,-0.03495 0.008,-0.08021 0.0284,-0.113716 0.0109,-0.01817 0.0442,-0.01148 0.0569,-0.02843 0.10292,-0.137224 -0.0149,-0.03384 0.0284,-0.142145 0.027,-0.06743 0.0967,-0.195238 0.14215,-0.255861 0.0161,-0.02144 0.0436,-0.03359 0.0568,-0.05686 0.0297,-0.05204 0.0236,-0.120707 0.0569,-0.170574 0.0149,-0.0223 0.046,-0.03236 0.0569,-0.05686 0.028,-0.06304 0.035,-0.133555 0.0569,-0.199003 0.0258,-0.07726 0.0849,-0.155362 0.11371,-0.227432 0.0424,-0.106037 0.0539,-0.23123 0.0853,-0.341149 0.0221,-0.07738 0.0636,-0.151618 0.0853,-0.227432 0.0325,-0.113638 0.038,-0.227807 0.0569,-0.341148 0.005,-0.02956 0.0235,-0.05573 0.0284,-0.08529 0.008,-0.04674 -0.0115,-0.09618 0,-0.142145 0.005,-0.02056 0.0243,-0.03608 0.0284,-0.05686 0.0327,-0.163281 0.013,-0.826874 -0.0568,-0.966586 -0.0271,-0.05427 -0.0708,-0.09924 -0.11372,-0.142145 -0.0598,-0.05975 -0.18643,0.102941 -0.199,0.113716 -0.14598,0.12512 -0.17466,0.184528 -0.28429,0.341148 -0.21074,0.301053 -0.0147,-0.0042 -0.22744,0.255861 -0.09,0.110014 -0.16859,0.228946 -0.25586,0.341148 -0.37978,0.488295 -0.77139,0.97121 -1.16559,1.44988 -0.30702,0.372817 -0.66298,0.705259 -0.96658,1.080302 -0.0811,0.10018 -0.14757,0.211554 -0.22743,0.312719 -0.21262,0.269313 -0.44434,0.52362 -0.65387,0.796012 -0.47984,0.623796 0.12884,-0.16483 -0.22743,0.369577 -0.006,0.0088 -0.20442,0.238252 -0.22744,0.28429 -0.0268,0.05361 -0.0301,0.116968 -0.0569,0.170574 -0.12566,0.251316 -0.0794,0.0939 -0.22744,0.28429 -0.18328,0.235646 0.001,0.0449 -0.14214,0.28429 -0.0867,0.144446 -0.23459,0.267767 -0.34115,0.398006 -0.24022,0.29361 -0.48857,0.56868 -0.76758,0.824441 -0.17732,0.162545 -0.33,0.354229 -0.51172,0.511722 -0.12325,0.106811 -0.29605,0.212421 -0.42644,0.312719 -0.23965,0.18435 -0.48087,0.38121 -0.73915,0.540151 -0.14037,0.08638 -0.21972,0.09564 -0.36958,0.170575 -0.65117,0.325585 0.21593,-0.08784 -0.36958,0.227432 -0.11614,0.06254 -0.22375,0.08878 -0.34115,0.142145 -0.10809,0.04913 -0.20311,0.124905 -0.31271,0.170574 -0.0637,0.02653 -0.13462,0.03209 -0.19901,0.05686 -0.1582,0.06085 -0.33426,0.146141 -0.48329,0.227432 -0.0485,0.02646 -0.0908,0.06477 -0.14215,0.08529 -0.0449,0.01794 -0.0963,0.01315 -0.14214,0.02843 -0.0804,0.0268 -0.14807,0.08396 -0.22743,0.113716 -0.14597,0.05474 -0.41848,0.158518 -0.54015,0.255861 -0.0828,0.06621 -0.14265,0.163845 -0.22744,0.227432 -0.0169,0.01271 -0.0441,0.01148 -0.0568,0.02843 -0.018,0.02397 -0.019,0.05686 -0.0284,0.08529 -0.019,0.02843 -0.0355,0.05861 -0.0569,0.08529 -0.0316,0.03948 -0.11845,0.106609 -0.14215,0.142145 -0.0283,0.04246 -0.034,0.0965 -0.0568,0.142145 -0.0531,0.106202 -0.12648,0.202473 -0.17058,0.312719 -0.007,0.0176 0,0.0379 0,0.05686 -0.009,0.02843 -0.015,0.05848 -0.0284,0.08529 -0.0978,0.195569 -0.18588,0.387076 -0.25586,0.597009 -0.0323,0.09692 -0.0404,0.222876 -0.0853,0.312719 -0.012,0.02397 -0.0469,0.03197 -0.0569,0.05686 -0.0239,0.05965 -0.0121,0.162268 -0.0284,0.227432 -0.0377,0.150848 -0.0592,0.298291 -0.0853,0.454864 -0.0254,0.152099 -0.0711,0.299309 -0.0853,0.454869 -0.006,0.0661 0.007,0.133 0,0.199 -0.006,0.0596 -0.047,0.11146 -0.0568,0.17058 -0.0162,0.0971 -0.003,0.0989 -0.0284,0.199 -0.0227,0.0909 0,0.2176 0,0.31272 0,0.28429 0,0.56858 0,0.85287 0,0.0901 -0.0314,0.3636 0,0.42643 0.0182,0.0364 0.0442,0.0758 0.0569,0.11372 0.0123,0.037 -0.0174,0.10734 0,0.14214 0.004,0.008 0.0217,-0.007 0.0284,0 0.0268,0.0268 0,0.0758 0,0.11372 0,0.14637 -0.007,0.28388 0.0284,0.42643 z"
   id="path13108" /><path
   class="st8"
   d="m 148.7,79.206987 c 0.1,-1.4 0.4,-6.4 0.4,-8.6 0,-2.2 -0.6,-6.5 -0.9,-7.8 -0.2,-0.9 -0.9,-4 -2,-9.2 -1.7,-4.7 -2.6,-7.4 -2.8,-8.3 -0.3,-1.3 -4.6,-9.5 -5.9,-11 -1.2,-1.5 -6.2,-8.4 -7.5,-9.6 -0.9,-0.8 -4,-3.6 -9.4,-8.5 -5.4,-4.3 -9.2,-6.9000001 -11.4,-7.9000001 -3.3,-1.5 -7.6,-3.5 -10.4,-4.3 -2.7,-0.8 -6.6,-2.3 -8.1,-2.7 -1.5,-0.40000001 -9.3,-1.40000001 -16.2,-1.30000001 -6.9,0.1 -18.1,2.00000001 -20.2,2.60000001 -1.5,0.4 -5.7,1.9 -12.6,4.6 -3.9,2 -6.7,3.6000001 -8.6,4.9000001 -2.8,1.9 -6.1,5 -8.6,7 -2.5,2 -4.9,4.7 -6.1,6 -1.2,1.3 -4.4,5.9 -6,8 -1.6,2.1 -4.8,8.3 -5.6,10.1 -0.8,1.8 -1.8,4.5 -2.7,7 -0.9,2.6 -1.8,4.9 -2.5,8.1 -0.7,3.2 -1.3,5.9 -1.4,8 -0.1,1.4 -0.1,4.8 -0.2,10.1 0.1,5.1 0.5,9.1 1,12.2 0.8,4.6 4.6,15.400003 5.2,17.100003 0.6,1.7 4.4,8.4 5.9,10.8 1.5,2.5 6.9,8.9 8.9,10.6 2,1.6 6.4,6.1 9.6,8.3 3.2,2.1 9.9,6.3 12.4,7.5 2.5,1.2 7.5,3.2 9.8,3.5 2.3,0.4 7.2,1.7 10.2,1.8 2,0.1 4.2,0 6.5,-0.1 l -3.3,-1.6 -7.4,-0.3 -4.5,-0.8 c -4,-1.8 -6.6,-2.8 -7.8,-3 -1.8,-0.3 -8,-4.3 -9.4,-4.8 -1,-0.3 -3.4,-2.1 -7.4,-5.3 l -6.2,-5.6 -5.3,-5.7 -5.4,-7.3 c -3.3,-6.1 -5.1,-9.7 -5.6,-10.9 -0.7,-1.7 -3.9,-10.700003 -4,-12.300003 -0.3,-1.5 -1.4,-10.4 -1.4,-12.8 0,-2.3 -0.2,-7.6 -0.1,-9 0.1,-1 1.1,-6.2 2.9,-15.5 2.6,-5.9 4.3,-9.6 5,-11.2 0.7,-1.6 2.7,-5.2 6.1,-10.8 l 7.9,-8.9 c 3.9,-3.7 6.8,-6.1 8.4,-7.3 2.5,-1.7 10.6,-6.6000001 19.4,-9.1000001 8.8,-2.5 18.8,-4 20.8,-3.8 2,0.2 11.2,-0.3 13.6,0.5 2.4,0.8 7.3,1.8 10.8,2.9 2.3,0.7 6.7,2.5 13.2,5.5000001 5.8,3.5 9.2,5.9 10.1,7.1 1.5,1.9 7.9,7 9.7,9.2 1.8,2.2 6.8,9 7.4,10.5 0.6,1.5 4.9,7.8 6,11.7 1.1,3.9 2.9,9.8 3.4,14.6 0.5,4.7 0.9,8.1 0.7,9.7 -0.2,1.1 -0.1,2.2 0.2,3.3 0.2,0.6 0.7,1.4 1.4,2.1 z"
   id="path78" />
  <path
   style="opacity:1;fill:#576c3b;fill-opacity:1;fill-rule:evenodd;stroke:none;stroke-width:1.021;stroke-dasharray:none;stroke-opacity:1;paint-order:markers stroke fill"
   d="m 53.875154,130.1439 c 0.462181,0.19808 0.907628,0.44098 1.386543,0.59423 1.430158,0.45765 4.226887,0.4952 5.744247,0.4952 2.617339,0 5.209705,-0.0528 7.824061,-0.19808 2.304668,-0.12804 4.642139,-0.27462 6.932712,-0.59423 1.558821,-0.21751 3.104173,-0.52264 4.654821,-0.79231 1.518594,-0.26411 3.044326,-0.49002 4.555782,-0.79231 3.289992,-0.658 6.526147,-1.61417 9.705797,-2.67405 0.873258,-0.29109 3.790644,-1.30675 4.75386,-1.68366 4.758383,-1.86197 0.03036,-0.14756 4.654823,-1.88173 0.82132,-0.308 1.66153,-0.56558 2.47597,-0.89135 2.73305,-1.09323 5.45892,-2.41374 8.02213,-3.86251 1.31933,-0.74571 2.66595,-1.54207 3.86252,-2.47597 1.93622,-1.5112 3.70501,-3.14285 5.54617,-4.75386 0.35311,-0.30897 0.74224,-0.57573 1.08942,-0.89135 0.0847,-0.077 1.93976,-1.94676 2.07982,-2.07981 0.322,-0.30591 0.67633,-0.5773 0.99038,-0.89135 0.2811,-0.2811 0.51122,-0.61026 0.79231,-0.89135 0.62386,-0.62386 1.3321,-1.18392 1.98078,-1.7827 0.84336,-0.77849 1.59516,-1.64209 2.37693,-2.47597 3.03712,-3.239597 -0.0376,0.28121 1.2875,-1.48558 0.17136,-0.228485 0.71511,-0.594235 0.59423,-0.594235 -0.0279,0 0.0407,0.565745 0,0.891355 -0.0772,0.61747 -0.28106,1.21168 -0.49519,1.78269 -0.17104,0.45612 -0.21243,0.92723 -0.39615,1.38655 -0.20483,0.51206 -0.3264,1.1025 -0.59424,1.58462 -0.58011,1.04419 -0.0219,-0.38323 -0.59423,0.99038 -0.0803,0.19274 -0.0981,0.41094 -0.19808,0.59424 -0.10122,0.18557 -0.28964,0.3126 -0.39615,0.49519 -0.12669,0.21717 -0.17792,0.4719 -0.29712,0.69327 -0.2938,0.54564 -0.67306,1.05574 -0.99039,1.58462 -0.11393,0.1899 -0.17011,0.41281 -0.29711,0.59423 -0.1071,0.15299 -0.28632,0.24513 -0.39616,0.39616 -0.26975,0.37091 -0.4117,0.82644 -0.69327,1.18846 -0.11465,0.14741 -0.2815,0.24875 -0.39615,0.39616 -0.2516,0.32348 -0.44168,0.76594 -0.69327,1.08942 -0.32638,0.41962 -0.73604,0.79091 -1.08943,1.18847 -0.28088,0.31598 -0.49337,0.69144 -0.79231,0.99039 -0.44149,0.44149 -0.94102,0.84198 -1.38654,1.2875 -0.51646,0.51646 -1.01477,1.12874 -1.58462,1.58462 -1.02991,0.82393 -0.17766,-0.0283 -1.08943,0.79231 -0.31232,0.28109 -0.5773,0.61219 -0.89135,0.89135 -0.4903,0.43582 -1.08093,0.67732 -1.58462,1.08943 -0.47623,0.38964 -0.87613,0.83117 -1.38654,1.18846 -0.67979,0.47585 -1.4143,0.88741 -2.07981,1.38654 -0.20628,0.15471 -0.3797,0.35217 -0.59424,0.4952 -0.18426,0.12284 -0.40997,0.17427 -0.59423,0.29711 -0.21453,0.14303 -0.3797,0.35217 -0.59423,0.4952 -1.69728,1.13151 0.54687,-0.60824 -1.18847,0.69327 -2.24057,1.68043 -4.54228,3.24892 -6.83367,4.8529 -0.27845,0.19491 -0.61477,0.29763 -0.89135,0.49519 -0.34402,0.24573 -0.645,0.5485 -0.99039,0.79231 -0.21744,0.15349 -0.46981,0.25156 -0.69327,0.39616 -0.33832,0.21891 -0.64866,0.47969 -0.99038,0.69327 -0.51234,0.32021 -1.08515,0.54171 -1.58462,0.89135 -0.17318,0.12122 -0.31261,0.28964 -0.4952,0.39615 -0.56685,0.33067 -1.22327,0.53535 -1.782696,0.89135 -0.178338,0.11349 -0.313931,0.2874 -0.495193,0.39615 -0.39429,0.23658 -0.870009,0.30251 -1.287504,0.4952 -0.367623,0.0871 -0.571958,0.43453 -0.891349,0.59423 -0.51951,0.25975 -1.1469,0.37058 -1.683658,0.59423 -2.686111,1.11922 -5.54865,1.72575 -8.418294,2.17885 -1.172073,0.18507 -2.385329,0.12867 -3.565394,0.19808 -0.2657,0.0156 -0.528207,0.066 -0.79231,0.099 -0.33013,0.033 -0.659071,0.0816 -0.990388,0.099 -1.41119,0.0743 -2.844798,0 -4.258666,0 -1.393848,0 -2.790107,0.0509 -4.159627,-0.19808 -0.512825,-0.0932 -0.973458,-0.0478 -1.485581,-0.099 -0.609588,-0.061 -1.206413,-0.15304 -1.782698,-0.29711 -0.243757,-0.0609 -0.464648,-0.0228 -0.693271,-0.099 -0.750487,-0.25016 0.03576,0.0358 -0.198077,-0.19808 -0.120681,-0.12068 -0.374513,-0.17643 -0.495194,-0.29712 -0.02334,-0.0233 0.02334,-0.0757 0,-0.099 -0.08417,-0.0842 -0.21295,-0.11391 -0.297116,-0.19808 -0.115221,-0.11522 -0.06136,-0.20597 -0.198078,-0.29712 -0.144327,-0.0962 -0.206284,-0.0618 -0.297116,-0.19808 -0.04095,-0.0614 -0.04684,-0.14587 -0.09904,-0.19807 -0.101954,-0.10196 -0.195162,-0.0961 -0.297116,-0.19808 -0.132052,-0.13205 -0.218989,-0.3371 -0.396155,-0.39616 -0.06264,-0.0209 -0.143141,0.0366 -0.198077,0 -0.06142,-0.0409 -0.04684,-0.14587 -0.09904,-0.19807 -0.194828,-0.19483 -0.570782,-0.23001 -0.79231,-0.39616 -0.192719,-0.14454 -0.289233,-0.27258 -0.495194,-0.39615 -0.179038,-0.10743 -0.400374,-0.12054 -0.594232,-0.19808 -1.010594,-0.40424 -2.035106,-0.74439 -3.070201,-1.08943 -0.27806,-0.0927 -0.519825,-0.0891 -0.79231,-0.19807 -0.454956,-0.18199 -0.854742,-0.47689 -1.287504,-0.69327 -0.150562,-0.0753 -0.355132,-0.006 -0.495194,-0.099 -0.06142,-0.041 -0.03301,-0.16507 -0.09904,-0.19808 -0.08858,-0.0443 -0.2,0.0194 -0.297116,0 -0.269554,-0.0539 -0.558071,-0.27904 -0.79231,-0.39616 -0.210683,-0.10534 -0.477818,-0.14421 -0.693271,-0.19807 -0.389938,-0.0975 -1.005236,-0.60166 -1.386542,-0.79231 -0.132052,-0.066 -0.291759,-0.0937 -0.396155,-0.19808 -0.02334,-0.0233 0,-0.066 0,-0.099 -0.03301,-0.033 -0.06019,-0.0731 -0.09904,-0.099 -0.06142,-0.041 -0.132052,-0.066 -0.198078,-0.099 -0.06602,0 -0.14314,0.0366 -0.198077,0 -0.06142,-0.0409 -0.04684,-0.14588 -0.09904,-0.19807 -0.05596,-0.056 -0.322378,-0.12431 -0.396155,-0.19808 -0.121295,-0.1213 -0.139006,-0.29075 -0.297116,-0.39616 -0.06142,-0.0409 -0.174734,-0.029 -0.198078,-0.099 -0.0522,-0.15659 0,-0.33013 0,-0.49519 z"
   id="path13029" /><path
   id="shape15"
   class="st8"
   d="m 148.7,74.606987 -2.8,-4.1 -4.1,-0.4 -0.8,-0.7 3.4,-3.8 1.4,-3.2 c -2.7,0.7 -5.2,1.1 -7.5,1.1 -3.5,0.1 -9.7,0.2 -12,0.3 -1.5,0 -2.8,-0.5 -4,-1.4 2.7,-0.5 4.6,-1.3 5.8,-2.3 1.2,-1 3.6,-3 7,-6 l 1.3,-3.7 -0.3,-1.3 c -3.1,1.4 -5.6,2.1 -7.4,2.1 -2.8,0.1 -14,0.2 -16.8,0.6 -1.9,0.3 -3.4,0.2 -4.3,-0.3 -6.8,-3.3 -10.7,-5.1 -11.9,-5.2 -1.8,-0.2 -10.9,-1.1 -14.2,-0.8 -3.3,0.4 -8.8,-0.6 -11.4,-0.3 -2.6,0.3 -3.1,0.1 -5.7,3.1 -2.5,2.9 -8.3,8 -11.2,10.1 -3,2.1 -15.2,8.6 -19.2,10.4 -4,1.8 -14.2,4.5 -16.9,5.4 -2.7,0.9 -5,1.2 -6.5,4.6 -1.5,3.4 -3.3,8.8 -1.7,13 1.6,4.2 2.3,6.8 4.3,9.500003 1.3,1.8 2.4,3.2 3.1,4.2 l 0.8,2.1 3.8,4.4 10.3,5.1 8.4,2.7 8.2,7.2 6.8,5.2 7.6,3.9 4.2,2.2 c 0.7,1.5 1.5,2.9 2.5,4.2 1,1.3 4.7,3.3 11.1,5.9 l 4,-0.8 -10.4,-4.8 -5.4,-5.4 2.2,-0.2 5.2,1.1 14.5,-1.8 c 4.1,-0.7 6.9,-1.8 8.3,-3.2 1.4,-1.4 2.9,-2.9 4.5,-4.4 l -3.3,0.1 c -1.9,1.7 -3.5,2.9 -5,3.8 -1.5,0.9 -5.1,2 -11,3.4 l -12,-0.3 -8.1,-1.2 -6.6,-3.1 -6.2,-4.5 -4.8,-5.2 -5.8,-4.9 -8.3,-1.6 -7.1,-3.3 -5,-3.5 -2.2,-3.6 4.2,-0.8 3.1,-1.4 3.6,2.6 1.6,2 1.5,-2.7 3.1,-0.5 7.4,6.4 1.6,-6 9.2,-0.1 11,-1.7 11.1,-2 6.5,-2.100003 1,0.8 2.1,4.400003 2,2.3 2,-3.7 2.6,-3.200003 4.7,-0.9 2.3,-1.4 1.5,3.300003 1.7,3 1,-4.200003 2,-2.5 c 2.6,-0.7 4.4,-1.8 5.4,-3.1 1,-1.3 2.4,-3.5 4.1,-6.5 0,-2.2 -1,-3.4 -2.8,-3.5 -1.8,-0.2 -3.5,0 -5,0.5 l 0.4,1.3 2.3,0.9 1.3,1.6 -1.2,3.4 -3.5,2.8 -2.8,1.5 -1.4,2.7 -0.4,1.5 -1.9,-4.1 -5,2.1 -4.6,0.8 -2.9,4.200003 -4.9,-5.500003 c -1.2,-0.3 -2.6,-0.2 -4.2,0.4 -1.6,0.6 -3.5,1.3 -5.7,2.1 l -14.4,2.600003 -10.8,0.8 -3.1,-0.6 -2,3.5 -0.3,1.4 -5.3,-4.6 -1.8,-1.8 -3.6,2.4 -1.2,0.6 -3.7,-2.7 -2.1,-0.2 -6.4,2.5 -4.3,-6.100003 -2,-11.6 2.4,-7.6 c 2.9,-1.8 5.6,-2.9 8,-3.3 2.4,-0.4 7.4,-1.8 15.2,-4.4 l 15.8,-8.8 11.2,-9.3 4.5,-4.8 c 8,0 13.1,-0.1 15.5,-0.2 2.4,-0.1 6.3,0 11.8,0.3 3.3,1.9 5.6,3.1 6.9,3.5 1.3,0.4 4.5,1.5 9.7,3.3 4.9,-0.6 8,-1 9.5,-1.2 1.5,-0.2 4.6,-0.2 9.4,-0.1 l 2.6,-0.8 -3.6,3.8 -5.6,3.8 -3.9,1.7 -0.9,0.5 c 2.1,2 3.7,3.1 4.9,3.3 1.8,0.3 6.7,0.3 8.5,0 1.2,-0.2 3.9,-0.3 8.1,-0.1 l 2.1,-0.9 -4.3,4.9 -2.4,1.5 3.2,1.9 4.6,0.3 c 0.5,0.2 2.1,0.7 5,1.4 z" />
  
  <path
   id="shape16"
   class="st8"
   d="m 18.5,85.906987 c -1.6,0.9 -1.9,1.6 -0.9,2.3 1,0.7 2.1,1.2 3.5,1.6 l 2,2.1 1,0.4 -0.4,-3 -2.1,-2.3 c -0.5,-0.1 -1.5,-0.5 -3.1,-1.1 z" /><path
   id="shape17"
   class="st8"
   d="m 67.9,71.906987 c 1.2,-1.6 2.7,-2.8 4.7,-3.7 2.9,-1.4 4.2,-3.4 8.2,-4.2 4,-0.9 3.3,-1.2 6.1,-2.1 1.8,-0.6 3,-0.9 3.7,-0.8 l -0.4,-1.5 c -0.5,-0.8 -1.6,-0.9 -3.2,-0.4 -2.4,0.8 -3.9,1.4 -6.3,2.6 -2.5,1.1 -5.2,2.1 -7.4,3.4 -1.4,0.8 -2.8,1.7 -4.2,2.7 l -2.3,1.4 c -0.3,0.6 0.1,1.5 1.1,2.6 z" />
  <path
   id="shape18"
   class="st8"
   d="m 89.9,59.606987 c 1.7,1.3 2.7,2.8 3.1,4.4 0.6,2.4 2,4.7 1.7,7.2 -0.2,1.7 -0.6,3.9 -1.3,6.8 l -3.2,3.7 c -1.8,1.3 -3.4,2.2 -5,2.6 -2.4,0.6 -3.2,0.8 -5.9,0.5 -2.7,-0.3 -4.7,-0.5 -6.6,-1.9 -1.3,-0.9 -2.7,-2.4 -4.2,-4.5 l -1.4,-4.1 v -4.4 l 1.4,-0.4 c -0.3,1.2 -0.4,2.4 -0.2,3.6 0.1,1.1 0.8,3 1.9,5.5 l 4.3,3.7 c 2.4,0.6 4.2,0.9 5.5,0.9 1.9,-0.1 4.5,-0.1 6.8,-1.3 1.5,-0.8 3.2,-2.3 5,-4.5 1.1,-1.2 1.6,-2.7 1.4,-4.4 -0.2,-2.6 -0.2,-3.4 -1.1,-5.7 -0.6,-1.5 -1.3,-3.2 -2.1,-5.1 l -2.4,-1.6 c -0.1,-0.2 0.8,-0.5 2.3,-1 z" />
  <path
   id="shape19"
   class="st8"
   d="m 82.1,67.906987 -2.1,1.9 -0.4,4.1 0.3,3.6 0.4,2.3 1.9,1.8 1.5,-1.7 0.1,-4.9 -0.2,-5.1 c 0,-0.2 -0.5,-0.8 -1.5,-2 z" />
  <path
   id="shape20"
   class="st8"
   d="m 147.5,76.106987 c 0.4,3.1 0.5,5.2 0.5,6.5 -0.1,1.9 -0.8,6.8 -1.4,8.6 -0.6,1.9 -5.2,9.600003 -6.7,12.000003 -1.5,2.4 -9.7,12.4 -12.4,15.4 -1.8,2 -6.7,6.2 -14.7,12.8 l -15,9.6 -14,6 -10.5,1.1 -5.2,-1.1 -1.4,-0.5 -0.4,1.6 5.4,0.8 8.4,0.3 16.5,-5.3 11.8,-7.6 18.2,-14.3 c 9.1,-10.3 14.1,-16 14.8,-17.2 1,-1.8 7.1,-10.900003 7.5,-13.300003 0.2,-1.5 0.4,-4.7 0.4,-9.5 l -0.7,-7.7 c 0.1,0.1 -0.3,0.7 -1.1,1.8 z" />
  
  
  
  
  
  
  
  
  
  
  
  
  
  
  
  
  
  
  
  
  
  
  
  
  <path
   id="shape48"
   class="st8"
   d="m 67.9,147.60699 c -1,-0.6 -0.9,-1.8 0.1,-3.5 1,-1.7 1.8,-2.8 2.3,-3.4 l -1.7,-0.8 c -2.1,3.7 -2.9,6 -2.3,7 0.8,1.6 0.8,1.6 1.6,0.7 z" />
  
  
<path
   style="opacity:1;fill:#576c3b;fill-opacity:1;fill-rule:evenodd;stroke:none;stroke-width:1.021;stroke-dasharray:none;stroke-opacity:1;paint-order:markers stroke fill"
   d="m 66.989908,66.231291 c -0.09093,-0.596791 0.115294,-1.122325 0.2414,-1.689806 0.02967,-0.133511 0.02492,-0.277355 0.08047,-0.402335 0.05447,-0.122552 0.186933,-0.199315 0.241401,-0.321868 0.05555,-0.124979 0.02492,-0.277355 0.08047,-0.402334 0.05447,-0.122553 0.181425,-0.201915 0.241401,-0.321868 0.07586,-0.15173 0.09074,-0.328368 0.160934,-0.482802 0.145417,-0.319917 0.396416,-0.57924 0.563269,-0.885136 0.06917,-0.126806 0.09079,-0.27607 0.160934,-0.402335 0.05656,-0.101815 0.526294,-0.674904 0.563268,-0.724203 0.343306,-0.457741 0.709667,-0.905382 1.046071,-1.367938 0.113763,-0.156424 0.192477,-0.339035 0.321868,-0.482802 0.114892,-0.127658 0.280891,-0.200424 0.402334,-0.321868 0.383593,-0.383593 0.229632,-0.402121 0.643736,-0.724202 0.123454,-0.09602 0.27888,-0.145381 0.402335,-0.241401 0.119768,-0.09315 0.200484,-0.23083 0.321868,-0.321868 0.951743,-0.713808 -0.344206,0.462114 0.643735,-0.402335 0.114189,-0.09991 0.187989,-0.250465 0.321868,-0.321867 0.277012,-0.14774 0.597512,-0.196032 0.885137,-0.321868 0.143286,-0.06269 0.253961,-0.191943 0.402334,-0.241401 0.17993,-0.05998 0.381994,-0.02469 0.563269,-0.08047 0.171973,-0.05291 0.312106,-0.184502 0.482802,-0.241401 0.606415,-0.202138 0.766425,-0.135251 1.367938,-0.241401 0.557176,-0.09832 0.749503,-0.205536 1.287471,-0.241401 0.68917,-0.04594 1.400913,0 2.092141,0 0.940621,0 1.956705,-0.08546 2.89681,0 0.404229,0.03675 0.802776,0.124186 1.207005,0.160934 0.293834,0.02671 0.593056,-0.04172 0.885136,0 0.328417,0.04692 0.638412,0.186869 0.965604,0.241401 0.07937,0.01323 0.163336,-0.01952 0.241401,0 0.09382,0.02346 0.151608,0.125017 0.241401,0.160934 0.402334,0.160934 0.160933,0 0.724202,0.241401 0.03487,0.01494 0.04448,0.06847 0.08047,0.08047 0.191221,0.06374 0.146146,-0.09526 0.321868,0.08047 0.01897,0.01897 -0.01897,0.0615 0,0.08047 0.01536,0.01536 0.241401,0.09504 0.241401,0.160934 0,0.05364 -0.10729,0 -0.160934,0 -0.214579,0 -0.429157,0 -0.643736,0 -0.563268,0 -1.126537,0 -1.689806,0 -0.430615,0 0.182251,0.01696 -0.402335,-0.08047 -0.185201,-0.03087 -0.376962,0.02329 -0.563268,0 -0.109738,-0.01372 -0.212388,-0.06483 -0.321868,-0.08047 -0.78761,-0.112516 -2.105693,0.0027 -2.896811,0.160934 -0.05881,0.01176 -0.101773,0.07061 -0.160933,0.08047 -0.10583,0.01764 -0.216039,-0.01764 -0.321868,0 -0.450618,0.0751 -0.905679,0.325291 -1.367939,0.402334 -0.07937,0.01323 -0.165063,-0.02544 -0.2414,0 -0.09175,0.03058 -0.152511,0.122839 -0.241401,0.160934 -0.232185,0.09951 -0.634178,0.104104 -0.80467,0.160934 -0.148374,0.04946 -0.257121,0.183316 -0.402335,0.241401 -0.181303,0.07252 -0.388614,0.07361 -0.563268,0.160934 -0.06786,0.03393 -0.09308,0.127006 -0.160934,0.160934 -0.09892,0.04946 -0.218318,0.04164 -0.321868,0.08047 -0.321699,0.120637 -0.563438,0.362165 -0.885136,0.482802 -0.10355,0.03883 -0.222952,0.03101 -0.321868,0.08047 -0.153615,0.07681 -0.24872,0.24506 -0.402335,0.321867 -0.07586,0.03793 -0.160934,0.05365 -0.241401,0.08047 -0.08047,0.05365 -0.158473,0.111178 -0.241401,0.160934 -0.180143,0.108086 -0.379293,0.149414 -0.563269,0.241401 -0.257036,0.128519 -0.472865,0.34317 -0.724202,0.482802 -0.303528,0.168627 -0.671471,0.306322 -0.965604,0.482802 -0.06505,0.03903 -0.09308,0.127006 -0.160933,0.160934 -0.09094,0.04547 -0.379746,0.05788 -0.482802,0.160933 -0.06838,0.06838 -0.08542,0.180987 -0.160934,0.241401 -0.06623,0.05299 -0.168669,0.03683 -0.241401,0.08047 -0.06505,0.03903 -0.09588,0.121902 -0.160934,0.160934 -0.220707,0.132425 -0.364174,0.122773 -0.563269,0.321868 -0.04241,0.04241 -0.03806,0.118524 -0.08047,0.160934 -0.121443,0.121443 -0.255063,0.233505 -0.402334,0.321868 -0.07273,0.04364 -0.168669,0.03683 -0.241401,0.08047 -0.340722,0.204433 -0.570354,0.568582 -0.885137,0.804669 -0.04798,0.03599 -0.118524,0.03806 -0.160934,0.08047 -0.06838,0.06838 -0.09255,0.173017 -0.160934,0.241401 -0.06838,0.06838 -0.173017,0.09255 -0.2414,0.160934 -0.09483,0.09483 -0.14657,0.227037 -0.241401,0.321868 -0.06796,0.06796 -0.705468,0.587532 -0.724203,0.643735 -0.02545,0.07634 0.0569,0.184503 0,0.241401 -0.04241,0.04241 -0.118524,0.03806 -0.160934,0.08047 -0.151967,0.151967 -0.03797,0.151894 -0.08047,0.321868 -0.04326,0.173063 -0.191683,0.333649 -0.241401,0.482802 -0.02545,0.07634 0.02545,0.165063 0,0.241401 -0.100823,0.30247 -0.196857,0.57261 -0.321867,0.885136 z"
   id="path12102" /><path
   style="display:inline;opacity:1;fill:#576c3b;fill-opacity:1;fill-rule:evenodd;stroke:none;stroke-width:1.021;stroke-dasharray:none;stroke-opacity:1;paint-order:markers stroke fill"
   d="m 85.712383,86.899359 c 2.098557,-0.540687 4.223561,-1.058033 6.141265,-2.090643 0.737629,-0.397185 1.463391,-0.935823 2.025311,-1.567983 0.242174,-0.272445 0.461927,-0.592591 0.718659,-0.849324 0.07699,-0.07699 0.189628,-0.114051 0.261331,-0.195998 0.08362,-0.09556 0.116671,-0.227505 0.195997,-0.326663 0.0962,-0.120246 0.238356,-0.200509 0.326663,-0.326663 0.06725,-0.09608 0.07033,-0.2261 0.130666,-0.326663 0.225092,-0.375153 0.232236,-0.21284 0.457328,-0.587993 0.07516,-0.12527 0.126043,-0.263746 0.195998,-0.391996 0.731774,-1.341586 -0.348427,0.76654 0.326663,-0.718659 0.207631,-0.456788 0.168717,-0.177335 0.326663,-0.587993 0.106332,-0.276463 0.144649,-0.577067 0.26133,-0.849324 0.03093,-0.07217 0.105835,-0.121507 0.130666,-0.195998 0.02066,-0.06198 -0.01074,-0.131554 0,-0.195998 0.01132,-0.06793 0.05559,-0.127823 0.06533,-0.195998 0.01232,-0.08623 -0.01232,-0.175095 0,-0.26133 0.0097,-0.06817 0.05401,-0.128068 0.06533,-0.195998 0.0089,-0.05349 0.0519,-0.966559 -0.130665,-0.783991 -0.124151,0.124151 -0.163939,0.31124 -0.261331,0.457328 -0.147058,0.220587 -0.309874,0.432145 -0.457328,0.653326 -0.13998,0.20997 -0.300868,0.392418 -0.457328,0.587994 -0.396511,0.495638 0.09382,-0.09104 -0.195998,0.391995 -0.03169,0.05282 -0.0965,0.07941 -0.130665,0.130665 -0.134594,0.201891 -0.205403,0.451226 -0.326664,0.653327 -0.06338,0.105636 -0.184372,0.165133 -0.26133,0.26133 -0.396511,0.495639 0.09382,-0.09104 -0.195998,0.391996 -0.113338,0.188897 -0.320351,0.351439 -0.457328,0.522661 -0.302105,0.377631 -0.257431,0.44319 -0.587994,0.718658 -0.176313,0.146928 -0.368303,0.272099 -0.52266,0.457329 -0.311559,0.373869 -0.674884,0.721188 -1.045322,1.045321 -0.05909,0.05171 -0.140476,0.07514 -0.195998,0.130666 -0.05552,0.05552 -0.07514,0.140475 -0.130665,0.195997 -0.147758,0.147759 -0.374903,0.244238 -0.522661,0.391996 -0.05552,0.05552 -0.07035,0.145731 -0.130665,0.195998 -0.07482,0.06235 -0.186512,0.06832 -0.261331,0.130665 -0.06032,0.05027 -0.06935,0.146947 -0.130665,0.195998 -0.05378,0.04302 -0.138697,0.02713 -0.195998,0.06533 -0.07062,0.04708 -0.730127,0.651328 -0.783991,0.718658 -0.04905,0.06131 -0.07035,0.145731 -0.130665,0.195998 -0.07482,0.06235 -0.18208,0.07406 -0.261331,0.130665 -0.213296,0.152355 -0.378121,0.365257 -0.587993,0.522661 -0.131013,0.09826 -0.342808,0.14681 -0.457329,0.261331 -0.03443,0.03443 -0.0309,0.09623 -0.06533,0.130665 -0.155558,0.155557 -0.33893,0.169465 -0.522661,0.26133 -0.08328,0.04164 -0.174969,0.167211 -0.261331,0.195998 -0.04132,0.01377 -0.08841,-0.01056 -0.130665,0 -0.118248,-0.03938 -0.121507,0.105835 -0.195998,0.130665 -0.04132,0.01377 -0.08935,-0.01377 -0.130665,0 -0.02922,0.0097 -0.04355,0.04355 -0.06533,0.06533 -0.04356,0.02178 -0.08342,0.05352 -0.130666,0.06533 -0.08451,0.02113 -0.176821,-0.02113 -0.26133,0 -0.120912,-0.04853 -0.119822,0.111621 -0.195998,0.130665 -0.08451,0.02113 -0.199734,-0.0616 -0.26133,0 -0.0154,0.0154 0,0.04356 0,0.06533"
   id="path12376" /><path
   style="opacity:1;fill:#e0fffc;fill-opacity:0.34507;fill-rule:evenodd;stroke:none;stroke-width:1.021;stroke-dasharray:none;stroke-opacity:1;paint-order:markers stroke fill"
   id="path19046"
   d="m 12.726219,43.363346 c -0.0816,0.150437 -0.220035,0.25541 -0.329935,0.382456 -0.215068,0.248622 -0.01001,0.0449 -0.187441,0.21464 -0.178187,0.198772 -0.316967,0.430377 -0.480952,0.642012 -0.139487,0.200548 -0.26694,0.40943 -0.400968,0.613881 -0.176975,0.279462 -0.329592,0.573267 -0.48146,0.866825 -0.168473,0.272653 -0.33437,0.546095 -0.487682,0.827789 -0.170363,0.345386 -0.331635,0.694971 -0.513257,1.034712 -0.1688811,0.304877 -0.2932051,0.629592 -0.4056857,0.958412 -0.1094795,0.312151 -0.2272669,0.621214 -0.3301445,0.935822 -0.094421,0.325304 -0.2147777,0.642313 -0.2931367,0.972108 -0.056849,0.208118 -0.028733,0.105893 -0.084312,0.306686 0,0 6.5224359,3.496794 6.5224359,3.496794 v 0 c 0.02678,-0.188275 0.01036,-0.09226 0.0501,-0.287908 0.172917,-0.615507 -0.07188,0.268998 0.07417,-0.299581 0.05469,-0.212914 0.144964,-0.41584 0.190207,-0.631588 0.03448,-0.102266 0.06432,-0.20611 0.100985,-0.30761 0.05714,-0.158164 0.132775,-0.309565 0.191174,-0.467037 0.01689,-0.04554 0.02825,-0.09294 0.04238,-0.139406 0.110392,-0.296373 0.187028,-0.605086 0.322574,-0.891741 0.169413,-0.336639 0.340756,-0.670886 0.527847,-0.998212 0.162873,-0.281811 0.339596,-0.555671 0.48793,-0.845703 0.144558,-0.263082 0.293357,-0.525062 0.480083,-0.761185 0.143245,-0.190373 0.256385,-0.398113 0.388819,-0.595987 0.142287,-0.195642 0.277376,-0.396855 0.43614,-0.579641 0.167267,-0.197762 0.343616,-0.392975 0.56204,-0.535703 0,0 -6.381903,-3.910835 -6.381903,-3.910835 z" /><path
   style="fill:#5c7545;fill-opacity:1;fill-rule:evenodd;stroke-width:1.021;paint-order:markers stroke fill"
   d="m 23.986967,87.725052 c 0.02687,0.134372 0.03453,0.274066 0.08062,0.403116 0.109216,0.305807 0.339432,0.568437 0.403116,0.886856 0.07802,0.390119 0.07122,0.787419 0.24187,1.128725 0.116399,0.232799 -0.05172,0.7089 0,0.967479 0.106158,0.530794 0.08062,1.063939 0.08062,1.612464 0,0.176435 0.06452,0.419272 0.161246,0.564362 0.01491,0.02236 0.06162,-0.019 0.08062,0 0.019,0.019 -0.02549,0.07213 0,0.08062 0.197268,0.06576 1.487147,0.125318 1.531842,0.08062 0.200943,-0.200944 0.192563,-0.47908 0.241869,-0.725609 0.04792,-0.239607 0.193705,-0.484782 0.24187,-0.725609 0.116948,-0.584738 -0.0251,-1.19743 -0.322493,-1.693088 -0.185955,-0.309925 -0.369064,-0.357421 -0.644986,-0.564362 -0.208779,-0.156584 -0.347487,-0.419779 -0.564362,-0.564363 -0.05,-0.03333 -0.118755,-0.03813 -0.161247,-0.08062 -0.06402,-0.06402 -0.05826,-0.212328 -0.241869,-0.322493 -0.07287,-0.04372 -0.165858,-0.04262 -0.24187,-0.08062 -0.193195,-0.0966 -0.257354,-0.418601 -0.403116,-0.564363 -0.148419,-0.148418 -0.322493,-0.268744 -0.483739,-0.403116 z"
   id="path2056" /></svg>
